%TF.GenerationSoftware,KiCad,Pcbnew,8.0.0*%
%TF.CreationDate,2024-03-27T17:11:43-03:00*%
%TF.ProjectId,ponderada_semana_8,706f6e64-6572-4616-9461-5f73656d616e,rev?*%
%TF.SameCoordinates,Original*%
%TF.FileFunction,Soldermask,Top*%
%TF.FilePolarity,Negative*%
%FSLAX46Y46*%
G04 Gerber Fmt 4.6, Leading zero omitted, Abs format (unit mm)*
G04 Created by KiCad (PCBNEW 8.0.0) date 2024-03-27 17:11:43*
%MOMM*%
%LPD*%
G01*
G04 APERTURE LIST*
%ADD10R,1.700000X3.500000*%
%ADD11O,1.700000X1.700000*%
%ADD12R,1.700000X1.700000*%
%ADD13R,3.500000X1.700000*%
%ADD14O,1.800000X1.800000*%
%ADD15O,1.500000X1.500000*%
%ADD16O,1.400000X1.400000*%
%ADD17C,1.400000*%
%ADD18O,1.050000X1.500000*%
%ADD19R,1.050000X1.500000*%
%ADD20O,1.000000X1.000000*%
%ADD21R,1.000000X1.000000*%
%ADD22R,1.800000X1.800000*%
%ADD23C,1.800000*%
G04 APERTURE END LIST*
D10*
%TO.C,U1*%
X70150000Y-108210000D03*
D11*
X70150000Y-107310000D03*
D10*
X67610000Y-108210000D03*
D12*
X67610000Y-107310000D03*
D10*
X65070000Y-108210000D03*
D11*
X65070000Y-107310000D03*
D13*
X77400000Y-59280000D03*
D11*
X76500000Y-59280000D03*
D13*
X77400000Y-61820000D03*
D11*
X76500000Y-61820000D03*
D13*
X77400000Y-64360000D03*
D12*
X76500000Y-64360000D03*
D13*
X77400000Y-66900000D03*
D11*
X76500000Y-66900000D03*
D13*
X77400000Y-69440000D03*
D11*
X76500000Y-69440000D03*
D13*
X77400000Y-71980000D03*
D11*
X76500000Y-71980000D03*
D13*
X77400000Y-74520000D03*
D11*
X76500000Y-74520000D03*
D13*
X77400000Y-77060000D03*
D12*
X76500000Y-77060000D03*
D13*
X77400000Y-79600000D03*
D11*
X76500000Y-79600000D03*
D13*
X77400000Y-82140000D03*
D11*
X76500000Y-82140000D03*
D13*
X77400000Y-84680000D03*
D11*
X76500000Y-84680000D03*
D13*
X77400000Y-87220000D03*
D11*
X76500000Y-87220000D03*
D13*
X77400000Y-89760000D03*
D12*
X76500000Y-89760000D03*
D13*
X77400000Y-92300000D03*
D11*
X76500000Y-92300000D03*
D13*
X77400000Y-94840000D03*
D11*
X76500000Y-94840000D03*
D13*
X77400000Y-97380000D03*
D11*
X76500000Y-97380000D03*
D13*
X77400000Y-99920000D03*
D11*
X76500000Y-99920000D03*
D13*
X77400000Y-102460000D03*
D12*
X76500000Y-102460000D03*
D13*
X77400000Y-105000000D03*
D11*
X76500000Y-105000000D03*
D13*
X77400000Y-107540000D03*
D11*
X76500000Y-107540000D03*
D13*
X57820000Y-107540000D03*
D11*
X58720000Y-107540000D03*
D13*
X57820000Y-105000000D03*
D11*
X58720000Y-105000000D03*
D13*
X57820000Y-102460000D03*
D12*
X58720000Y-102460000D03*
D13*
X57820000Y-99920000D03*
D11*
X58720000Y-99920000D03*
D13*
X57820000Y-97380000D03*
D11*
X58720000Y-97380000D03*
D13*
X57820000Y-94840000D03*
D11*
X58720000Y-94840000D03*
D13*
X57820000Y-92300000D03*
D11*
X58720000Y-92300000D03*
D13*
X57820000Y-89760000D03*
D12*
X58720000Y-89760000D03*
D13*
X57820000Y-87220000D03*
D11*
X58720000Y-87220000D03*
D13*
X57820000Y-84680000D03*
D11*
X58720000Y-84680000D03*
D13*
X57820000Y-82140000D03*
D11*
X58720000Y-82140000D03*
D13*
X57820000Y-79600000D03*
D11*
X58720000Y-79600000D03*
D13*
X57820000Y-77060000D03*
D12*
X58720000Y-77060000D03*
D13*
X57820000Y-74520000D03*
D11*
X58720000Y-74520000D03*
D13*
X57820000Y-71980000D03*
D11*
X58720000Y-71980000D03*
D13*
X57820000Y-69440000D03*
D11*
X58720000Y-69440000D03*
D13*
X57820000Y-66900000D03*
D11*
X58720000Y-66900000D03*
D13*
X57820000Y-64360000D03*
D12*
X58720000Y-64360000D03*
D13*
X57820000Y-61820000D03*
D11*
X58720000Y-61820000D03*
D13*
X57820000Y-59280000D03*
D11*
X58720000Y-59280000D03*
D14*
X70335000Y-59410000D03*
D15*
X70035000Y-62440000D03*
X65185000Y-62440000D03*
D14*
X64885000Y-59410000D03*
%TD*%
D16*
%TO.C,R2*%
X93500000Y-66960000D03*
D17*
X93500000Y-72040000D03*
%TD*%
%TO.C,R1*%
X93460000Y-98000000D03*
D16*
X93460000Y-92920000D03*
%TD*%
D18*
%TO.C,Q1*%
X94840000Y-87500000D03*
X93570000Y-87500000D03*
D19*
X92300000Y-87500000D03*
%TD*%
D20*
%TO.C,Pinos1*%
X88000000Y-60500000D03*
D21*
X88000000Y-61770000D03*
%TD*%
D12*
%TO.C,J1*%
X88000000Y-110080000D03*
D11*
X88000000Y-107540000D03*
X88000000Y-105000000D03*
X88000000Y-102460000D03*
%TD*%
D22*
%TO.C,D1*%
X92460000Y-78500000D03*
D23*
X95000000Y-78500000D03*
%TD*%
M02*
