%TF.GenerationSoftware,KiCad,Pcbnew,8.0.0*%
%TF.CreationDate,2024-03-27T17:11:43-03:00*%
%TF.ProjectId,ponderada_semana_8,706f6e64-6572-4616-9461-5f73656d616e,rev?*%
%TF.SameCoordinates,Original*%
%TF.FileFunction,Copper,L1,Top*%
%TF.FilePolarity,Positive*%
%FSLAX46Y46*%
G04 Gerber Fmt 4.6, Leading zero omitted, Abs format (unit mm)*
G04 Created by KiCad (PCBNEW 8.0.0) date 2024-03-27 17:11:43*
%MOMM*%
%LPD*%
G01*
G04 APERTURE LIST*
%TA.AperFunction,SMDPad,CuDef*%
%ADD10R,1.700000X3.500000*%
%TD*%
%TA.AperFunction,ComponentPad*%
%ADD11O,1.700000X1.700000*%
%TD*%
%TA.AperFunction,ComponentPad*%
%ADD12R,1.700000X1.700000*%
%TD*%
%TA.AperFunction,SMDPad,CuDef*%
%ADD13R,3.500000X1.700000*%
%TD*%
%TA.AperFunction,ComponentPad*%
%ADD14O,1.400000X1.400000*%
%TD*%
%TA.AperFunction,ComponentPad*%
%ADD15C,1.400000*%
%TD*%
%TA.AperFunction,ComponentPad*%
%ADD16O,1.050000X1.500000*%
%TD*%
%TA.AperFunction,ComponentPad*%
%ADD17R,1.050000X1.500000*%
%TD*%
%TA.AperFunction,ComponentPad*%
%ADD18O,1.000000X1.000000*%
%TD*%
%TA.AperFunction,ComponentPad*%
%ADD19R,1.000000X1.000000*%
%TD*%
%TA.AperFunction,ComponentPad*%
%ADD20R,1.800000X1.800000*%
%TD*%
%TA.AperFunction,ComponentPad*%
%ADD21C,1.800000*%
%TD*%
%TA.AperFunction,Conductor*%
%ADD22C,1.000000*%
%TD*%
%TA.AperFunction,Conductor*%
%ADD23C,0.200000*%
%TD*%
G04 APERTURE END LIST*
D10*
%TO.P,U1,43,SWDIO*%
%TO.N,unconnected-(U1-SWDIO-Pad43)*%
X70150000Y-108210000D03*
D11*
X70150000Y-107310000D03*
D10*
%TO.P,U1,42,GND*%
%TO.N,unconnected-(U1-GND-Pad42)*%
X67610000Y-108210000D03*
D12*
X67610000Y-107310000D03*
D10*
%TO.P,U1,41,SWCLK*%
%TO.N,unconnected-(U1-SWCLK-Pad41)*%
X65070000Y-108210000D03*
D11*
X65070000Y-107310000D03*
D13*
%TO.P,U1,40,VBUS*%
%TO.N,unconnected-(U1-VBUS-Pad40)*%
X77400000Y-59280000D03*
D11*
X76500000Y-59280000D03*
D13*
%TO.P,U1,39,VSYS*%
%TO.N,VCC*%
X77400000Y-61820000D03*
D11*
X76500000Y-61820000D03*
D13*
%TO.P,U1,38,GND*%
%TO.N,GND*%
X77400000Y-64360000D03*
D12*
X76500000Y-64360000D03*
D13*
%TO.P,U1,37,3V3_EN*%
%TO.N,unconnected-(U1-3V3_EN-Pad37)*%
X77400000Y-66900000D03*
D11*
X76500000Y-66900000D03*
D13*
%TO.P,U1,36,3V3*%
%TO.N,unconnected-(U1-3V3-Pad36)*%
X77400000Y-69440000D03*
D11*
X76500000Y-69440000D03*
D13*
%TO.P,U1,35,ADC_VREF*%
%TO.N,unconnected-(U1-ADC_VREF-Pad35)*%
X77400000Y-71980000D03*
D11*
X76500000Y-71980000D03*
D13*
%TO.P,U1,34,GPIO28_ADC2*%
%TO.N,unconnected-(U1-GPIO28_ADC2-Pad34)*%
X77400000Y-74520000D03*
D11*
X76500000Y-74520000D03*
D13*
%TO.P,U1,33,AGND*%
%TO.N,unconnected-(U1-AGND-Pad33)*%
X77400000Y-77060000D03*
D12*
X76500000Y-77060000D03*
D13*
%TO.P,U1,32,GPIO27_ADC1*%
%TO.N,unconnected-(U1-GPIO27_ADC1-Pad32)*%
X77400000Y-79600000D03*
D11*
X76500000Y-79600000D03*
D13*
%TO.P,U1,31,GPIO26_ADC0*%
%TO.N,unconnected-(U1-GPIO26_ADC0-Pad31)*%
X77400000Y-82140000D03*
D11*
X76500000Y-82140000D03*
D13*
%TO.P,U1,30,RUN*%
%TO.N,unconnected-(U1-RUN-Pad30)*%
X77400000Y-84680000D03*
D11*
X76500000Y-84680000D03*
D13*
%TO.P,U1,29,GPIO22*%
%TO.N,unconnected-(U1-GPIO22-Pad29)*%
X77400000Y-87220000D03*
D11*
X76500000Y-87220000D03*
D13*
%TO.P,U1,28,GND*%
%TO.N,GND*%
X77400000Y-89760000D03*
D12*
X76500000Y-89760000D03*
D13*
%TO.P,U1,27,GPIO21*%
%TO.N,unconnected-(U1-GPIO21-Pad27)*%
X77400000Y-92300000D03*
D11*
X76500000Y-92300000D03*
D13*
%TO.P,U1,26,GPIO20*%
%TO.N,unconnected-(U1-GPIO20-Pad26)*%
X77400000Y-94840000D03*
D11*
X76500000Y-94840000D03*
D13*
%TO.P,U1,25,GPIO19*%
%TO.N,Sinal*%
X77400000Y-97380000D03*
D11*
X76500000Y-97380000D03*
D13*
%TO.P,U1,24,GPIO18*%
%TO.N,unconnected-(U1-GPIO18-Pad24)*%
X77400000Y-99920000D03*
D11*
X76500000Y-99920000D03*
D13*
%TO.P,U1,23,GND*%
%TO.N,unconnected-(U1-GND-Pad23)*%
X77400000Y-102460000D03*
D12*
X76500000Y-102460000D03*
D13*
%TO.P,U1,22,GPIO17*%
%TO.N,Dados_1*%
X77400000Y-105000000D03*
D11*
X76500000Y-105000000D03*
D13*
%TO.P,U1,21,GPIO16*%
%TO.N,Dados_2*%
X77400000Y-107540000D03*
D11*
X76500000Y-107540000D03*
D13*
%TO.P,U1,20,GPIO15*%
%TO.N,unconnected-(U1-GPIO15-Pad20)*%
X57820000Y-107540000D03*
D11*
X58720000Y-107540000D03*
D13*
%TO.P,U1,19,GPIO14*%
%TO.N,unconnected-(U1-GPIO14-Pad19)*%
X57820000Y-105000000D03*
D11*
X58720000Y-105000000D03*
D13*
%TO.P,U1,18,GND*%
%TO.N,unconnected-(U1-GND-Pad18)*%
X57820000Y-102460000D03*
D12*
X58720000Y-102460000D03*
D13*
%TO.P,U1,17,GPIO13*%
%TO.N,unconnected-(U1-GPIO13-Pad17)*%
X57820000Y-99920000D03*
D11*
X58720000Y-99920000D03*
D13*
%TO.P,U1,16,GPIO12*%
%TO.N,unconnected-(U1-GPIO12-Pad16)*%
X57820000Y-97380000D03*
D11*
X58720000Y-97380000D03*
D13*
%TO.P,U1,15,GPIO11*%
%TO.N,unconnected-(U1-GPIO11-Pad15)*%
X57820000Y-94840000D03*
D11*
X58720000Y-94840000D03*
D13*
%TO.P,U1,14,GPIO10*%
%TO.N,unconnected-(U1-GPIO10-Pad14)*%
X57820000Y-92300000D03*
D11*
X58720000Y-92300000D03*
D13*
%TO.P,U1,13,GND*%
%TO.N,unconnected-(U1-GND-Pad13)*%
X57820000Y-89760000D03*
D12*
X58720000Y-89760000D03*
D13*
%TO.P,U1,12,GPIO9*%
%TO.N,unconnected-(U1-GPIO9-Pad12)*%
X57820000Y-87220000D03*
D11*
X58720000Y-87220000D03*
D13*
%TO.P,U1,11,GPIO8*%
%TO.N,unconnected-(U1-GPIO8-Pad11)*%
X57820000Y-84680000D03*
D11*
X58720000Y-84680000D03*
D13*
%TO.P,U1,10,GPIO7*%
%TO.N,unconnected-(U1-GPIO7-Pad10)*%
X57820000Y-82140000D03*
D11*
X58720000Y-82140000D03*
D13*
%TO.P,U1,9,GPIO6*%
%TO.N,unconnected-(U1-GPIO6-Pad9)*%
X57820000Y-79600000D03*
D11*
X58720000Y-79600000D03*
D13*
%TO.P,U1,8,GND*%
%TO.N,unconnected-(U1-GND-Pad8)*%
X57820000Y-77060000D03*
D12*
X58720000Y-77060000D03*
D13*
%TO.P,U1,7,GPIO5*%
%TO.N,unconnected-(U1-GPIO5-Pad7)*%
X57820000Y-74520000D03*
D11*
X58720000Y-74520000D03*
D13*
%TO.P,U1,6,GPIO4*%
%TO.N,unconnected-(U1-GPIO4-Pad6)*%
X57820000Y-71980000D03*
D11*
X58720000Y-71980000D03*
D13*
%TO.P,U1,5,GPIO3*%
%TO.N,unconnected-(U1-GPIO3-Pad5)*%
X57820000Y-69440000D03*
D11*
X58720000Y-69440000D03*
D13*
%TO.P,U1,4,GPIO2*%
%TO.N,unconnected-(U1-GPIO2-Pad4)*%
X57820000Y-66900000D03*
D11*
X58720000Y-66900000D03*
D13*
%TO.P,U1,3,GND*%
%TO.N,unconnected-(U1-GND-Pad3)*%
X57820000Y-64360000D03*
D12*
X58720000Y-64360000D03*
D13*
%TO.P,U1,2,GPIO1*%
%TO.N,unconnected-(U1-GPIO1-Pad2)*%
X57820000Y-61820000D03*
D11*
X58720000Y-61820000D03*
D13*
%TO.P,U1,1,GPIO0*%
%TO.N,unconnected-(U1-GPIO0-Pad1)*%
X57820000Y-59280000D03*
D11*
X58720000Y-59280000D03*
%TD*%
D14*
%TO.P,R2,2*%
%TO.N,GND*%
X93500000Y-66960000D03*
D15*
%TO.P,R2,1*%
%TO.N,Net-(D1-A)*%
X93500000Y-72040000D03*
%TD*%
%TO.P,R1,1*%
%TO.N,Sinal*%
X93460000Y-98000000D03*
D14*
%TO.P,R1,2*%
%TO.N,Net-(Q1-B)*%
X93460000Y-92920000D03*
%TD*%
D16*
%TO.P,Q1,3,E*%
%TO.N,GND*%
X94840000Y-87500000D03*
%TO.P,Q1,2,B*%
%TO.N,Net-(Q1-B)*%
X93570000Y-87500000D03*
D17*
%TO.P,Q1,1,C*%
%TO.N,Net-(D1-K)*%
X92300000Y-87500000D03*
%TD*%
D18*
%TO.P,Pinos1,2,Pin_2*%
%TO.N,GND*%
X88000000Y-60500000D03*
D19*
%TO.P,Pinos1,1,Pin_1*%
%TO.N,VCC*%
X88000000Y-61770000D03*
%TD*%
D12*
%TO.P,J1,1,Pin_1*%
%TO.N,GND*%
X88000000Y-110080000D03*
D11*
%TO.P,J1,2,Pin_2*%
%TO.N,Dados_2*%
X88000000Y-107540000D03*
%TO.P,J1,3,Pin_3*%
%TO.N,Dados_1*%
X88000000Y-105000000D03*
%TO.P,J1,4,Pin_4*%
%TO.N,VCC*%
X88000000Y-102460000D03*
%TD*%
D20*
%TO.P,D1,1,K*%
%TO.N,Net-(D1-K)*%
X92460000Y-78500000D03*
D21*
%TO.P,D1,2,A*%
%TO.N,Net-(D1-A)*%
X95000000Y-78500000D03*
%TD*%
D22*
%TO.N,VCC*%
X100500000Y-99500000D02*
X97540000Y-102460000D01*
X100500000Y-65500000D02*
X100500000Y-99500000D01*
X97540000Y-102460000D02*
X88000000Y-102460000D01*
X88000000Y-61770000D02*
X96770000Y-61770000D01*
X96770000Y-61770000D02*
X100500000Y-65500000D01*
D23*
%TO.N,Sinal*%
X77120000Y-98000000D02*
X76500000Y-97380000D01*
D22*
X93460000Y-98000000D02*
X77120000Y-98000000D01*
D23*
%TO.N,Net-(Q1-B)*%
X93570000Y-92810000D02*
X93460000Y-92920000D01*
D22*
X93570000Y-87500000D02*
X93570000Y-92810000D01*
%TO.N,Net-(D1-K)*%
X92460000Y-78500000D02*
X92460000Y-87340000D01*
D23*
X92460000Y-87340000D02*
X92300000Y-87500000D01*
D22*
%TO.N,Net-(D1-A)*%
X93500000Y-77000000D02*
X95000000Y-78500000D01*
X93500000Y-72040000D02*
X93500000Y-77000000D01*
%TO.N,VCC*%
X76550000Y-61770000D02*
X88000000Y-61770000D01*
D23*
X76500000Y-61820000D02*
X76550000Y-61770000D01*
D22*
%TO.N,Dados_1*%
X76500000Y-105000000D02*
X88000000Y-105000000D01*
%TO.N,Dados_2*%
X76500000Y-107540000D02*
X88000000Y-107540000D01*
D23*
%TO.N,*%
X79640000Y-64360000D02*
X79730000Y-64270000D01*
%TD*%
%TA.AperFunction,Conductor*%
%TO.N,GND*%
G36*
X96371257Y-62790185D02*
G01*
X96391899Y-62806819D01*
X99463181Y-65878101D01*
X99496666Y-65939424D01*
X99499500Y-65965782D01*
X99499500Y-99034218D01*
X99479815Y-99101257D01*
X99463181Y-99121899D01*
X97161899Y-101423181D01*
X97100576Y-101456666D01*
X97074218Y-101459500D01*
X88960758Y-101459500D01*
X88893719Y-101439815D01*
X88873077Y-101423181D01*
X88871402Y-101421506D01*
X88871395Y-101421501D01*
X88677834Y-101285967D01*
X88677830Y-101285965D01*
X88631393Y-101264311D01*
X88463663Y-101186097D01*
X88463659Y-101186096D01*
X88463655Y-101186094D01*
X88235413Y-101124938D01*
X88235403Y-101124936D01*
X88000001Y-101104341D01*
X87999999Y-101104341D01*
X87764596Y-101124936D01*
X87764586Y-101124938D01*
X87536344Y-101186094D01*
X87536335Y-101186098D01*
X87322171Y-101285964D01*
X87322169Y-101285965D01*
X87128597Y-101421505D01*
X86961505Y-101588597D01*
X86825965Y-101782169D01*
X86825964Y-101782171D01*
X86726098Y-101996335D01*
X86726094Y-101996344D01*
X86664938Y-102224586D01*
X86664936Y-102224596D01*
X86644341Y-102459999D01*
X86644341Y-102460000D01*
X86664936Y-102695403D01*
X86664938Y-102695413D01*
X86726094Y-102923655D01*
X86726096Y-102923659D01*
X86726097Y-102923663D01*
X86807288Y-103097778D01*
X86825965Y-103137830D01*
X86825967Y-103137834D01*
X86961501Y-103331395D01*
X86961506Y-103331402D01*
X87128597Y-103498493D01*
X87128603Y-103498498D01*
X87314158Y-103628425D01*
X87357783Y-103683002D01*
X87364977Y-103752500D01*
X87333454Y-103814855D01*
X87314158Y-103831575D01*
X87128597Y-103961505D01*
X87126922Y-103963181D01*
X87126000Y-103963684D01*
X87124449Y-103964986D01*
X87124187Y-103964674D01*
X87065599Y-103996666D01*
X87039241Y-103999500D01*
X79714141Y-103999500D01*
X79647102Y-103979815D01*
X79601347Y-103927011D01*
X79597969Y-103918859D01*
X79593796Y-103907669D01*
X79516421Y-103804309D01*
X79492004Y-103738848D01*
X79506855Y-103670575D01*
X79516416Y-103655696D01*
X79593796Y-103552331D01*
X79644091Y-103417483D01*
X79650500Y-103357873D01*
X79650499Y-101562128D01*
X79644091Y-101502517D01*
X79593796Y-101367669D01*
X79516421Y-101264309D01*
X79492004Y-101198848D01*
X79506855Y-101130575D01*
X79516416Y-101115696D01*
X79593796Y-101012331D01*
X79644091Y-100877483D01*
X79650500Y-100817873D01*
X79650499Y-99124499D01*
X79670184Y-99057461D01*
X79722987Y-99011706D01*
X79774499Y-99000500D01*
X92760137Y-99000500D01*
X92825414Y-99019073D01*
X92922595Y-99079245D01*
X92922596Y-99079245D01*
X92922599Y-99079247D01*
X93130060Y-99159618D01*
X93348757Y-99200500D01*
X93348759Y-99200500D01*
X93571241Y-99200500D01*
X93571243Y-99200500D01*
X93789940Y-99159618D01*
X93997401Y-99079247D01*
X94186562Y-98962124D01*
X94350981Y-98812236D01*
X94485058Y-98634689D01*
X94584229Y-98435528D01*
X94645115Y-98221536D01*
X94665643Y-98000000D01*
X94645115Y-97778464D01*
X94584229Y-97564472D01*
X94584224Y-97564461D01*
X94485061Y-97365316D01*
X94485056Y-97365308D01*
X94350979Y-97187761D01*
X94186562Y-97037876D01*
X94186560Y-97037874D01*
X93997404Y-96920754D01*
X93997398Y-96920752D01*
X93789940Y-96840382D01*
X93571243Y-96799500D01*
X93348757Y-96799500D01*
X93130060Y-96840382D01*
X92998864Y-96891207D01*
X92922601Y-96920752D01*
X92922595Y-96920754D01*
X92825414Y-96980927D01*
X92760137Y-96999500D01*
X79774499Y-96999500D01*
X79707460Y-96979815D01*
X79661705Y-96927011D01*
X79650499Y-96875500D01*
X79650499Y-96482129D01*
X79650498Y-96482123D01*
X79650497Y-96482116D01*
X79644091Y-96422517D01*
X79593796Y-96287669D01*
X79516421Y-96184309D01*
X79492004Y-96118848D01*
X79506855Y-96050575D01*
X79516416Y-96035696D01*
X79593796Y-95932331D01*
X79644091Y-95797483D01*
X79650500Y-95737873D01*
X79650499Y-93942128D01*
X79644091Y-93882517D01*
X79643944Y-93882124D01*
X79593797Y-93747671D01*
X79593795Y-93747668D01*
X79582243Y-93732236D01*
X79516421Y-93644309D01*
X79492004Y-93578848D01*
X79506855Y-93510575D01*
X79516416Y-93495696D01*
X79593796Y-93392331D01*
X79644091Y-93257483D01*
X79650500Y-93197873D01*
X79650499Y-91402128D01*
X79644091Y-91342517D01*
X79593796Y-91207669D01*
X79516109Y-91103893D01*
X79491692Y-91038430D01*
X79506543Y-90970157D01*
X79516110Y-90955271D01*
X79593352Y-90852089D01*
X79593354Y-90852086D01*
X79643596Y-90717379D01*
X79643598Y-90717372D01*
X79649999Y-90657844D01*
X79650000Y-90657827D01*
X79650000Y-90010000D01*
X76944560Y-90010000D01*
X76975245Y-89956853D01*
X77010000Y-89827143D01*
X77010000Y-89692857D01*
X76975245Y-89563147D01*
X76944560Y-89510000D01*
X79650000Y-89510000D01*
X79650000Y-88862172D01*
X79649999Y-88862155D01*
X79643598Y-88802627D01*
X79643596Y-88802620D01*
X79593354Y-88667913D01*
X79593352Y-88667910D01*
X79516110Y-88564729D01*
X79491692Y-88499265D01*
X79506543Y-88430992D01*
X79516105Y-88416111D01*
X79593796Y-88312331D01*
X79644091Y-88177483D01*
X79650500Y-88117873D01*
X79650499Y-86322128D01*
X79644091Y-86262517D01*
X79639866Y-86251190D01*
X79593797Y-86127671D01*
X79593795Y-86127668D01*
X79592172Y-86125500D01*
X79516421Y-86024309D01*
X79492004Y-85958848D01*
X79506855Y-85890575D01*
X79516416Y-85875696D01*
X79593796Y-85772331D01*
X79644091Y-85637483D01*
X79650500Y-85577873D01*
X79650499Y-83782128D01*
X79644091Y-83722517D01*
X79593796Y-83587669D01*
X79516421Y-83484309D01*
X79492004Y-83418848D01*
X79506855Y-83350575D01*
X79516416Y-83335696D01*
X79593796Y-83232331D01*
X79644091Y-83097483D01*
X79650500Y-83037873D01*
X79650499Y-81242128D01*
X79644091Y-81182517D01*
X79593796Y-81047669D01*
X79516421Y-80944309D01*
X79492004Y-80878848D01*
X79506855Y-80810575D01*
X79516416Y-80795696D01*
X79593796Y-80692331D01*
X79644091Y-80557483D01*
X79650500Y-80497873D01*
X79650499Y-79447870D01*
X91059500Y-79447870D01*
X91059501Y-79447876D01*
X91065908Y-79507483D01*
X91116202Y-79642328D01*
X91116206Y-79642335D01*
X91202452Y-79757544D01*
X91202455Y-79757547D01*
X91317664Y-79843793D01*
X91317669Y-79843796D01*
X91378833Y-79866608D01*
X91434766Y-79908478D01*
X91459184Y-79973942D01*
X91459500Y-79982790D01*
X91459500Y-86299045D01*
X91439815Y-86366084D01*
X91423185Y-86386723D01*
X91417451Y-86392457D01*
X91331206Y-86507664D01*
X91331202Y-86507671D01*
X91280908Y-86642517D01*
X91274501Y-86702116D01*
X91274500Y-86702135D01*
X91274500Y-88297870D01*
X91274501Y-88297876D01*
X91280908Y-88357483D01*
X91331202Y-88492328D01*
X91331206Y-88492335D01*
X91417452Y-88607544D01*
X91417455Y-88607547D01*
X91532664Y-88693793D01*
X91532671Y-88693797D01*
X91667517Y-88744091D01*
X91667516Y-88744091D01*
X91674444Y-88744835D01*
X91727127Y-88750500D01*
X92445500Y-88750499D01*
X92512539Y-88770183D01*
X92558294Y-88822987D01*
X92569500Y-88874499D01*
X92569500Y-92065566D01*
X92549815Y-92132605D01*
X92544454Y-92140293D01*
X92434943Y-92285308D01*
X92434938Y-92285316D01*
X92335775Y-92484461D01*
X92335769Y-92484476D01*
X92274885Y-92698462D01*
X92274884Y-92698464D01*
X92254357Y-92919999D01*
X92254357Y-92920000D01*
X92274884Y-93141535D01*
X92274885Y-93141537D01*
X92335769Y-93355523D01*
X92335775Y-93355538D01*
X92434938Y-93554683D01*
X92434943Y-93554691D01*
X92569020Y-93732238D01*
X92733437Y-93882123D01*
X92733439Y-93882125D01*
X92922595Y-93999245D01*
X92922596Y-93999245D01*
X92922599Y-93999247D01*
X93130060Y-94079618D01*
X93348757Y-94120500D01*
X93348759Y-94120500D01*
X93571241Y-94120500D01*
X93571243Y-94120500D01*
X93789940Y-94079618D01*
X93997401Y-93999247D01*
X94186562Y-93882124D01*
X94350981Y-93732236D01*
X94485058Y-93554689D01*
X94584229Y-93355528D01*
X94645115Y-93141536D01*
X94665643Y-92920000D01*
X94645115Y-92698464D01*
X94636345Y-92667642D01*
X94584233Y-92484483D01*
X94584226Y-92484465D01*
X94583497Y-92483001D01*
X94583247Y-92481938D01*
X94582159Y-92479130D01*
X94582550Y-92478978D01*
X94570500Y-92427735D01*
X94570500Y-88795004D01*
X94590000Y-88728595D01*
X94590000Y-87865865D01*
X94592383Y-87841671D01*
X94595500Y-87826002D01*
X94595500Y-87785830D01*
X94609745Y-87800075D01*
X94695255Y-87849444D01*
X94790630Y-87875000D01*
X94889370Y-87875000D01*
X94984745Y-87849444D01*
X95070255Y-87800075D01*
X95090000Y-87780330D01*
X95090000Y-88720352D01*
X95138974Y-88710612D01*
X95138983Y-88710609D01*
X95325513Y-88633347D01*
X95325526Y-88633340D01*
X95493399Y-88521170D01*
X95493403Y-88521167D01*
X95636167Y-88378403D01*
X95636170Y-88378399D01*
X95748340Y-88210526D01*
X95748347Y-88210513D01*
X95825609Y-88023983D01*
X95825612Y-88023974D01*
X95864999Y-87825958D01*
X95865000Y-87825955D01*
X95865000Y-87750000D01*
X95120330Y-87750000D01*
X95140075Y-87730255D01*
X95189444Y-87644745D01*
X95215000Y-87549370D01*
X95215000Y-87450630D01*
X95189444Y-87355255D01*
X95140075Y-87269745D01*
X95120330Y-87250000D01*
X95865000Y-87250000D01*
X95865000Y-87174045D01*
X95864999Y-87174041D01*
X95825612Y-86976025D01*
X95825609Y-86976016D01*
X95748347Y-86789486D01*
X95748340Y-86789473D01*
X95636170Y-86621600D01*
X95636167Y-86621596D01*
X95493403Y-86478832D01*
X95493399Y-86478829D01*
X95325526Y-86366659D01*
X95325513Y-86366652D01*
X95138984Y-86289390D01*
X95138977Y-86289388D01*
X95090000Y-86279645D01*
X95090000Y-87219670D01*
X95070255Y-87199925D01*
X94984745Y-87150556D01*
X94889370Y-87125000D01*
X94790630Y-87125000D01*
X94695255Y-87150556D01*
X94609745Y-87199925D01*
X94595500Y-87214170D01*
X94595500Y-87173996D01*
X94595499Y-87173995D01*
X94592383Y-87158326D01*
X94590000Y-87134134D01*
X94590000Y-86279646D01*
X94589999Y-86279645D01*
X94541022Y-86289388D01*
X94541015Y-86289390D01*
X94354481Y-86366654D01*
X94354479Y-86366655D01*
X94274337Y-86420204D01*
X94207660Y-86441081D01*
X94140280Y-86422596D01*
X94136558Y-86420204D01*
X94055754Y-86366212D01*
X93869127Y-86288909D01*
X93869119Y-86288907D01*
X93671007Y-86249500D01*
X93671003Y-86249500D01*
X93584500Y-86249500D01*
X93517461Y-86229815D01*
X93471706Y-86177011D01*
X93460500Y-86125500D01*
X93460500Y-79982790D01*
X93480185Y-79915751D01*
X93532989Y-79869996D01*
X93541146Y-79866616D01*
X93602331Y-79843796D01*
X93717546Y-79757546D01*
X93803796Y-79642331D01*
X93819584Y-79600002D01*
X93832455Y-79565493D01*
X93874326Y-79509559D01*
X93939790Y-79485141D01*
X94008063Y-79499992D01*
X94039866Y-79524843D01*
X94047302Y-79532920D01*
X94048215Y-79533912D01*
X94048222Y-79533918D01*
X94231365Y-79676464D01*
X94231371Y-79676468D01*
X94231374Y-79676470D01*
X94435497Y-79786936D01*
X94549487Y-79826068D01*
X94655015Y-79862297D01*
X94655017Y-79862297D01*
X94655019Y-79862298D01*
X94883951Y-79900500D01*
X94883952Y-79900500D01*
X95116048Y-79900500D01*
X95116049Y-79900500D01*
X95344981Y-79862298D01*
X95564503Y-79786936D01*
X95768626Y-79676470D01*
X95784156Y-79664383D01*
X95866879Y-79599997D01*
X95951784Y-79533913D01*
X96108979Y-79363153D01*
X96235924Y-79168849D01*
X96329157Y-78956300D01*
X96386134Y-78731305D01*
X96393491Y-78642516D01*
X96405300Y-78500006D01*
X96405300Y-78499993D01*
X96386135Y-78268702D01*
X96386133Y-78268691D01*
X96329157Y-78043699D01*
X96235924Y-77831151D01*
X96108983Y-77636852D01*
X96108980Y-77636849D01*
X96108979Y-77636847D01*
X95951784Y-77466087D01*
X95951779Y-77466083D01*
X95951777Y-77466081D01*
X95768634Y-77323535D01*
X95768628Y-77323531D01*
X95564504Y-77213064D01*
X95564495Y-77213061D01*
X95344984Y-77137702D01*
X95154450Y-77105908D01*
X95116049Y-77099500D01*
X95116048Y-77099500D01*
X95065783Y-77099500D01*
X94998744Y-77079815D01*
X94978102Y-77063181D01*
X94536819Y-76621898D01*
X94503334Y-76560575D01*
X94500500Y-76534217D01*
X94500500Y-72748769D01*
X94520185Y-72681730D01*
X94524761Y-72675167D01*
X94525053Y-72674694D01*
X94525058Y-72674689D01*
X94624229Y-72475528D01*
X94685115Y-72261536D01*
X94705643Y-72040000D01*
X94700083Y-71980002D01*
X94685115Y-71818464D01*
X94685114Y-71818462D01*
X94624230Y-71604476D01*
X94624229Y-71604472D01*
X94624224Y-71604461D01*
X94525061Y-71405316D01*
X94525056Y-71405308D01*
X94390979Y-71227761D01*
X94226562Y-71077876D01*
X94226560Y-71077874D01*
X94037404Y-70960754D01*
X94037398Y-70960752D01*
X93829940Y-70880382D01*
X93611243Y-70839500D01*
X93388757Y-70839500D01*
X93170060Y-70880382D01*
X93038864Y-70931207D01*
X92962601Y-70960752D01*
X92962595Y-70960754D01*
X92773439Y-71077874D01*
X92773437Y-71077876D01*
X92609020Y-71227761D01*
X92474943Y-71405308D01*
X92474938Y-71405316D01*
X92375775Y-71604461D01*
X92375769Y-71604476D01*
X92314885Y-71818462D01*
X92314884Y-71818464D01*
X92294357Y-72039999D01*
X92294357Y-72040000D01*
X92314884Y-72261535D01*
X92314885Y-72261537D01*
X92375769Y-72475523D01*
X92375775Y-72475538D01*
X92474938Y-72674683D01*
X92477959Y-72679561D01*
X92476805Y-72680275D01*
X92499145Y-72739389D01*
X92499500Y-72748769D01*
X92499500Y-76975500D01*
X92479815Y-77042539D01*
X92427011Y-77088294D01*
X92375500Y-77099500D01*
X91512129Y-77099500D01*
X91512123Y-77099501D01*
X91452516Y-77105908D01*
X91317671Y-77156202D01*
X91317664Y-77156206D01*
X91202455Y-77242452D01*
X91202452Y-77242455D01*
X91116206Y-77357664D01*
X91116202Y-77357671D01*
X91065908Y-77492517D01*
X91059501Y-77552116D01*
X91059500Y-77552135D01*
X91059500Y-79447870D01*
X79650499Y-79447870D01*
X79650499Y-78702128D01*
X79644091Y-78642517D01*
X79593796Y-78507669D01*
X79516421Y-78404309D01*
X79492004Y-78338848D01*
X79506855Y-78270575D01*
X79516416Y-78255696D01*
X79593796Y-78152331D01*
X79644091Y-78017483D01*
X79650500Y-77957873D01*
X79650499Y-76162128D01*
X79644091Y-76102517D01*
X79593796Y-75967669D01*
X79516421Y-75864309D01*
X79492004Y-75798848D01*
X79506855Y-75730575D01*
X79516416Y-75715696D01*
X79593796Y-75612331D01*
X79644091Y-75477483D01*
X79650500Y-75417873D01*
X79650499Y-73622128D01*
X79644091Y-73562517D01*
X79593796Y-73427669D01*
X79516421Y-73324309D01*
X79492004Y-73258848D01*
X79506855Y-73190575D01*
X79516416Y-73175696D01*
X79593796Y-73072331D01*
X79644091Y-72937483D01*
X79650500Y-72877873D01*
X79650499Y-71082128D01*
X79644091Y-71022517D01*
X79593796Y-70887669D01*
X79516421Y-70784309D01*
X79492004Y-70718848D01*
X79506855Y-70650575D01*
X79516416Y-70635696D01*
X79593796Y-70532331D01*
X79644091Y-70397483D01*
X79650500Y-70337873D01*
X79650499Y-68542128D01*
X79644091Y-68482517D01*
X79593796Y-68347669D01*
X79516421Y-68244309D01*
X79492004Y-68178848D01*
X79506855Y-68110575D01*
X79516416Y-68095696D01*
X79593796Y-67992331D01*
X79644091Y-67857483D01*
X79650500Y-67797873D01*
X79650499Y-67210000D01*
X92323505Y-67210000D01*
X92376239Y-67395349D01*
X92475368Y-67594425D01*
X92609391Y-67771900D01*
X92773738Y-67921721D01*
X92962820Y-68038797D01*
X92962822Y-68038798D01*
X93170195Y-68119135D01*
X93250000Y-68134052D01*
X93250000Y-67210000D01*
X92323505Y-67210000D01*
X79650499Y-67210000D01*
X79650499Y-67006078D01*
X93150000Y-67006078D01*
X93173852Y-67095095D01*
X93219930Y-67174905D01*
X93285095Y-67240070D01*
X93364905Y-67286148D01*
X93453922Y-67310000D01*
X93546078Y-67310000D01*
X93635095Y-67286148D01*
X93714905Y-67240070D01*
X93744975Y-67210000D01*
X93750000Y-67210000D01*
X93750000Y-68134052D01*
X93829804Y-68119135D01*
X94037177Y-68038798D01*
X94037179Y-68038797D01*
X94226261Y-67921721D01*
X94390608Y-67771900D01*
X94524631Y-67594425D01*
X94623760Y-67395349D01*
X94676495Y-67210000D01*
X93750000Y-67210000D01*
X93744975Y-67210000D01*
X93780070Y-67174905D01*
X93826148Y-67095095D01*
X93850000Y-67006078D01*
X93850000Y-66913922D01*
X93826148Y-66824905D01*
X93780070Y-66745095D01*
X93714905Y-66679930D01*
X93635095Y-66633852D01*
X93546078Y-66610000D01*
X93453922Y-66610000D01*
X93364905Y-66633852D01*
X93285095Y-66679930D01*
X93219930Y-66745095D01*
X93173852Y-66824905D01*
X93150000Y-66913922D01*
X93150000Y-67006078D01*
X79650499Y-67006078D01*
X79650499Y-66710000D01*
X92323505Y-66710000D01*
X93250000Y-66710000D01*
X93250000Y-65785946D01*
X93750000Y-65785946D01*
X93750000Y-66710000D01*
X94676495Y-66710000D01*
X94623760Y-66524650D01*
X94524631Y-66325574D01*
X94390608Y-66148099D01*
X94226261Y-65998278D01*
X94037179Y-65881202D01*
X94037177Y-65881201D01*
X93829799Y-65800864D01*
X93750000Y-65785946D01*
X93250000Y-65785946D01*
X93170200Y-65800864D01*
X92962822Y-65881201D01*
X92962820Y-65881202D01*
X92773738Y-65998278D01*
X92609391Y-66148099D01*
X92475368Y-66325574D01*
X92376239Y-66524650D01*
X92323505Y-66710000D01*
X79650499Y-66710000D01*
X79650499Y-66002128D01*
X79644091Y-65942517D01*
X79642937Y-65939424D01*
X79593797Y-65807671D01*
X79593795Y-65807668D01*
X79516109Y-65703893D01*
X79491692Y-65638430D01*
X79506543Y-65570157D01*
X79516110Y-65555271D01*
X79593352Y-65452089D01*
X79593354Y-65452086D01*
X79643596Y-65317379D01*
X79643598Y-65317372D01*
X79649999Y-65257844D01*
X79650000Y-65257827D01*
X79650000Y-65074152D01*
X79669685Y-65007113D01*
X79722489Y-64961358D01*
X79741893Y-64954381D01*
X79871785Y-64919577D01*
X80008716Y-64840519D01*
X80210519Y-64638716D01*
X80289577Y-64501785D01*
X80330500Y-64349058D01*
X80330500Y-64190943D01*
X80289577Y-64038216D01*
X80210519Y-63901284D01*
X80098716Y-63789481D01*
X80098714Y-63789480D01*
X80098712Y-63789478D01*
X79961786Y-63710424D01*
X79961785Y-63710423D01*
X79961784Y-63710423D01*
X79809057Y-63669500D01*
X79774000Y-63669500D01*
X79706961Y-63649815D01*
X79661206Y-63597011D01*
X79650000Y-63545500D01*
X79650000Y-63462172D01*
X79649999Y-63462155D01*
X79643598Y-63402627D01*
X79643596Y-63402620D01*
X79593354Y-63267913D01*
X79593352Y-63267910D01*
X79516110Y-63164729D01*
X79491692Y-63099265D01*
X79506543Y-63030992D01*
X79516105Y-63016111D01*
X79593796Y-62912331D01*
X79609834Y-62869331D01*
X79616609Y-62851167D01*
X79658480Y-62795233D01*
X79723944Y-62770816D01*
X79732791Y-62770500D01*
X87452127Y-62770500D01*
X87901459Y-62770500D01*
X96304218Y-62770500D01*
X96371257Y-62790185D01*
G37*
%TD.AperFunction*%
%TA.AperFunction,Conductor*%
G36*
X77593039Y-64129685D02*
G01*
X77638794Y-64182489D01*
X77650000Y-64234000D01*
X77650000Y-64486000D01*
X77630315Y-64553039D01*
X77577511Y-64598794D01*
X77526000Y-64610000D01*
X76944560Y-64610000D01*
X76975245Y-64556853D01*
X77010000Y-64427143D01*
X77010000Y-64292857D01*
X76975245Y-64163147D01*
X76944560Y-64110000D01*
X77526000Y-64110000D01*
X77593039Y-64129685D01*
G37*
%TD.AperFunction*%
%TA.AperFunction,Conductor*%
G36*
X107442539Y-44520185D02*
G01*
X107488294Y-44572989D01*
X107499500Y-44624500D01*
X107499500Y-119375500D01*
X107479815Y-119442539D01*
X107427011Y-119488294D01*
X107375500Y-119499500D01*
X47124500Y-119499500D01*
X47057461Y-119479815D01*
X47011706Y-119427011D01*
X47000500Y-119375500D01*
X47000500Y-108437870D01*
X55569500Y-108437870D01*
X55569501Y-108437876D01*
X55575908Y-108497483D01*
X55626202Y-108632328D01*
X55626206Y-108632335D01*
X55712452Y-108747544D01*
X55712455Y-108747547D01*
X55827664Y-108833793D01*
X55827671Y-108833797D01*
X55962517Y-108884091D01*
X55962516Y-108884091D01*
X55969444Y-108884835D01*
X56022127Y-108890500D01*
X58655611Y-108890499D01*
X58666419Y-108890971D01*
X58719999Y-108895659D01*
X58720000Y-108895659D01*
X58720001Y-108895659D01*
X58773580Y-108890971D01*
X58784388Y-108890499D01*
X59617871Y-108890499D01*
X59617872Y-108890499D01*
X59677483Y-108884091D01*
X59812331Y-108833796D01*
X59927546Y-108747546D01*
X60013796Y-108632331D01*
X60064091Y-108497483D01*
X60070500Y-108437873D01*
X60070499Y-107604383D01*
X60070971Y-107593576D01*
X60075659Y-107540000D01*
X60075659Y-107539999D01*
X60070971Y-107486421D01*
X60070499Y-107475613D01*
X60070499Y-107310001D01*
X63714341Y-107310001D01*
X63719028Y-107363574D01*
X63719500Y-107374381D01*
X63719500Y-110007870D01*
X63719501Y-110007876D01*
X63725908Y-110067483D01*
X63776202Y-110202328D01*
X63776206Y-110202335D01*
X63862452Y-110317544D01*
X63862455Y-110317547D01*
X63977664Y-110403793D01*
X63977671Y-110403797D01*
X64112517Y-110454091D01*
X64112516Y-110454091D01*
X64119444Y-110454835D01*
X64172127Y-110460500D01*
X65967872Y-110460499D01*
X66027483Y-110454091D01*
X66162331Y-110403796D01*
X66265690Y-110326421D01*
X66331152Y-110302004D01*
X66399425Y-110316855D01*
X66414303Y-110326416D01*
X66495242Y-110387007D01*
X66517668Y-110403795D01*
X66517671Y-110403797D01*
X66652517Y-110454091D01*
X66652516Y-110454091D01*
X66659444Y-110454835D01*
X66712127Y-110460500D01*
X68507872Y-110460499D01*
X68567483Y-110454091D01*
X68702331Y-110403796D01*
X68805690Y-110326421D01*
X68871152Y-110302004D01*
X68939425Y-110316855D01*
X68954303Y-110326416D01*
X69035242Y-110387007D01*
X69057668Y-110403795D01*
X69057671Y-110403797D01*
X69192517Y-110454091D01*
X69192516Y-110454091D01*
X69199444Y-110454835D01*
X69252127Y-110460500D01*
X71047872Y-110460499D01*
X71107483Y-110454091D01*
X71242331Y-110403796D01*
X71357546Y-110317546D01*
X71443796Y-110202331D01*
X71494091Y-110067483D01*
X71500500Y-110007873D01*
X71500499Y-107540002D01*
X75144341Y-107540002D01*
X75149028Y-107593576D01*
X75149500Y-107604383D01*
X75149500Y-108437870D01*
X75149501Y-108437876D01*
X75155908Y-108497483D01*
X75206202Y-108632328D01*
X75206206Y-108632335D01*
X75292452Y-108747544D01*
X75292455Y-108747547D01*
X75407664Y-108833793D01*
X75407671Y-108833797D01*
X75542517Y-108884091D01*
X75542516Y-108884091D01*
X75549444Y-108884835D01*
X75602127Y-108890500D01*
X76435616Y-108890499D01*
X76446425Y-108890971D01*
X76500000Y-108895659D01*
X76553575Y-108890971D01*
X76564384Y-108890499D01*
X79197871Y-108890499D01*
X79197872Y-108890499D01*
X79257483Y-108884091D01*
X79392331Y-108833796D01*
X79507546Y-108747546D01*
X79593796Y-108632331D01*
X79597960Y-108621165D01*
X79639829Y-108565234D01*
X79705293Y-108540816D01*
X79714141Y-108540500D01*
X86880570Y-108540500D01*
X86947609Y-108560185D01*
X86993364Y-108612989D01*
X87003308Y-108682147D01*
X86974283Y-108745703D01*
X86923903Y-108780682D01*
X86907913Y-108786645D01*
X86907906Y-108786649D01*
X86792812Y-108872809D01*
X86792809Y-108872812D01*
X86706649Y-108987906D01*
X86706645Y-108987913D01*
X86656403Y-109122620D01*
X86656401Y-109122627D01*
X86650000Y-109182155D01*
X86650000Y-109830000D01*
X87566988Y-109830000D01*
X87534075Y-109887007D01*
X87500000Y-110014174D01*
X87500000Y-110145826D01*
X87534075Y-110272993D01*
X87566988Y-110330000D01*
X86650000Y-110330000D01*
X86650000Y-110977844D01*
X86656401Y-111037372D01*
X86656403Y-111037379D01*
X86706645Y-111172086D01*
X86706649Y-111172093D01*
X86792809Y-111287187D01*
X86792812Y-111287190D01*
X86907906Y-111373350D01*
X86907913Y-111373354D01*
X87042620Y-111423596D01*
X87042627Y-111423598D01*
X87102155Y-111429999D01*
X87102172Y-111430000D01*
X87750000Y-111430000D01*
X87750000Y-110513012D01*
X87807007Y-110545925D01*
X87934174Y-110580000D01*
X88065826Y-110580000D01*
X88192993Y-110545925D01*
X88250000Y-110513012D01*
X88250000Y-111430000D01*
X88897828Y-111430000D01*
X88897844Y-111429999D01*
X88957372Y-111423598D01*
X88957379Y-111423596D01*
X89092086Y-111373354D01*
X89092093Y-111373350D01*
X89207187Y-111287190D01*
X89207190Y-111287187D01*
X89293350Y-111172093D01*
X89293354Y-111172086D01*
X89343596Y-111037379D01*
X89343598Y-111037372D01*
X89349999Y-110977844D01*
X89350000Y-110977827D01*
X89350000Y-110330000D01*
X88433012Y-110330000D01*
X88465925Y-110272993D01*
X88500000Y-110145826D01*
X88500000Y-110014174D01*
X88465925Y-109887007D01*
X88433012Y-109830000D01*
X89350000Y-109830000D01*
X89350000Y-109182172D01*
X89349999Y-109182155D01*
X89343598Y-109122627D01*
X89343596Y-109122620D01*
X89293354Y-108987913D01*
X89293350Y-108987906D01*
X89207190Y-108872812D01*
X89207187Y-108872809D01*
X89092093Y-108786649D01*
X89092088Y-108786646D01*
X88960528Y-108737577D01*
X88904595Y-108695705D01*
X88880178Y-108630241D01*
X88895030Y-108561968D01*
X88916175Y-108533720D01*
X89038495Y-108411401D01*
X89174035Y-108217830D01*
X89273903Y-108003663D01*
X89335063Y-107775408D01*
X89355659Y-107540000D01*
X89335063Y-107304592D01*
X89273903Y-107076337D01*
X89174035Y-106862171D01*
X89038495Y-106668599D01*
X89038494Y-106668597D01*
X88871402Y-106501506D01*
X88871396Y-106501501D01*
X88685842Y-106371575D01*
X88642217Y-106316998D01*
X88635023Y-106247500D01*
X88666546Y-106185145D01*
X88685842Y-106168425D01*
X88757863Y-106117995D01*
X88871401Y-106038495D01*
X89038495Y-105871401D01*
X89174035Y-105677830D01*
X89273903Y-105463663D01*
X89335063Y-105235408D01*
X89355659Y-105000000D01*
X89335063Y-104764592D01*
X89273903Y-104536337D01*
X89174035Y-104322171D01*
X89038495Y-104128599D01*
X89038494Y-104128597D01*
X88871402Y-103961506D01*
X88871396Y-103961501D01*
X88685842Y-103831575D01*
X88642217Y-103776998D01*
X88635023Y-103707500D01*
X88666546Y-103645145D01*
X88685842Y-103628425D01*
X88794515Y-103552331D01*
X88871401Y-103498495D01*
X88873077Y-103496819D01*
X88873995Y-103496317D01*
X88875544Y-103495018D01*
X88875805Y-103495329D01*
X88934400Y-103463334D01*
X88960758Y-103460500D01*
X97638543Y-103460500D01*
X97735175Y-103441278D01*
X97783493Y-103431667D01*
X97831836Y-103422051D01*
X97885165Y-103399961D01*
X98013914Y-103346632D01*
X98177782Y-103237139D01*
X98317139Y-103097782D01*
X98317140Y-103097779D01*
X98324206Y-103090714D01*
X98324209Y-103090710D01*
X101137778Y-100277141D01*
X101137782Y-100277139D01*
X101277139Y-100137782D01*
X101386632Y-99973914D01*
X101431157Y-99866421D01*
X101439961Y-99845166D01*
X101439961Y-99845165D01*
X101462051Y-99791836D01*
X101483383Y-99684592D01*
X101500500Y-99598541D01*
X101500500Y-65604675D01*
X101500501Y-65604654D01*
X101500501Y-65401457D01*
X101500500Y-65401455D01*
X101483797Y-65317483D01*
X101462052Y-65208165D01*
X101386632Y-65026086D01*
X101386631Y-65026085D01*
X101386628Y-65026079D01*
X101277140Y-64862219D01*
X101277137Y-64862215D01*
X97554209Y-61139289D01*
X97554206Y-61139285D01*
X97554206Y-61139286D01*
X97547139Y-61132219D01*
X97547139Y-61132218D01*
X97407782Y-60992861D01*
X97407781Y-60992860D01*
X97407780Y-60992859D01*
X97243920Y-60883371D01*
X97243907Y-60883364D01*
X97105907Y-60826204D01*
X97061836Y-60807949D01*
X97061828Y-60807947D01*
X96965188Y-60788724D01*
X96868544Y-60769500D01*
X96868541Y-60769500D01*
X89046041Y-60769500D01*
X88979632Y-60750000D01*
X88209618Y-60750000D01*
X88260064Y-60699554D01*
X88302851Y-60625445D01*
X88325000Y-60542787D01*
X88325000Y-60457213D01*
X88302851Y-60374555D01*
X88260064Y-60300446D01*
X88199554Y-60239936D01*
X88125445Y-60197149D01*
X88042787Y-60175000D01*
X87957213Y-60175000D01*
X87874555Y-60197149D01*
X87800446Y-60239936D01*
X87739936Y-60300446D01*
X87697149Y-60374555D01*
X87675000Y-60457213D01*
X87675000Y-60542787D01*
X87697149Y-60625445D01*
X87739936Y-60699554D01*
X87790382Y-60750000D01*
X87013014Y-60750000D01*
X86997811Y-60761487D01*
X86953959Y-60769500D01*
X79687180Y-60769500D01*
X79620141Y-60749815D01*
X79587914Y-60719811D01*
X79516422Y-60624311D01*
X79492004Y-60558847D01*
X79506855Y-60490574D01*
X79516416Y-60475696D01*
X79593796Y-60372331D01*
X79639423Y-60249999D01*
X87030839Y-60249999D01*
X87030840Y-60250000D01*
X87750000Y-60250000D01*
X87750000Y-59530839D01*
X88250000Y-59530839D01*
X88250000Y-60250000D01*
X88969160Y-60250000D01*
X88969160Y-60249999D01*
X88928347Y-60115458D01*
X88835496Y-59941746D01*
X88835492Y-59941739D01*
X88710528Y-59789471D01*
X88558260Y-59664507D01*
X88558253Y-59664503D01*
X88384541Y-59571652D01*
X88250000Y-59530839D01*
X87750000Y-59530839D01*
X87749999Y-59530839D01*
X87615458Y-59571652D01*
X87441746Y-59664503D01*
X87441739Y-59664507D01*
X87289471Y-59789471D01*
X87164507Y-59941739D01*
X87164503Y-59941746D01*
X87071652Y-60115458D01*
X87030839Y-60249999D01*
X79639423Y-60249999D01*
X79644091Y-60237483D01*
X79650500Y-60177873D01*
X79650499Y-58382128D01*
X79644091Y-58322517D01*
X79610901Y-58233531D01*
X79593797Y-58187671D01*
X79593793Y-58187664D01*
X79507547Y-58072455D01*
X79507544Y-58072452D01*
X79392335Y-57986206D01*
X79392328Y-57986202D01*
X79257482Y-57935908D01*
X79257483Y-57935908D01*
X79197883Y-57929501D01*
X79197881Y-57929500D01*
X79197873Y-57929500D01*
X79197865Y-57929500D01*
X76564385Y-57929500D01*
X76553578Y-57929028D01*
X76500001Y-57924341D01*
X76499997Y-57924341D01*
X76446419Y-57929028D01*
X76435613Y-57929500D01*
X75602129Y-57929500D01*
X75602123Y-57929501D01*
X75542516Y-57935908D01*
X75407671Y-57986202D01*
X75407664Y-57986206D01*
X75292455Y-58072452D01*
X75292452Y-58072455D01*
X75206206Y-58187664D01*
X75206202Y-58187671D01*
X75155908Y-58322517D01*
X75150149Y-58376087D01*
X75149501Y-58382123D01*
X75149500Y-58382135D01*
X75149500Y-59215616D01*
X75149028Y-59226423D01*
X75144341Y-59279997D01*
X75144341Y-59280002D01*
X75149028Y-59333576D01*
X75149500Y-59344383D01*
X75149500Y-60177870D01*
X75149501Y-60177876D01*
X75155908Y-60237483D01*
X75206202Y-60372328D01*
X75206203Y-60372330D01*
X75283578Y-60475689D01*
X75307995Y-60541153D01*
X75293144Y-60609426D01*
X75283578Y-60624311D01*
X75206203Y-60727669D01*
X75206202Y-60727671D01*
X75155908Y-60862517D01*
X75149501Y-60922116D01*
X75149501Y-60922123D01*
X75149500Y-60922135D01*
X75149500Y-61755616D01*
X75149028Y-61766423D01*
X75144341Y-61819997D01*
X75144341Y-61820002D01*
X75149028Y-61873576D01*
X75149500Y-61884383D01*
X75149500Y-62717870D01*
X75149501Y-62717876D01*
X75155908Y-62777483D01*
X75206202Y-62912328D01*
X75206206Y-62912335D01*
X75283889Y-63016105D01*
X75308307Y-63081569D01*
X75293456Y-63149842D01*
X75283890Y-63164727D01*
X75206647Y-63267910D01*
X75206645Y-63267913D01*
X75156403Y-63402620D01*
X75156401Y-63402627D01*
X75150000Y-63462155D01*
X75150000Y-64110000D01*
X76055440Y-64110000D01*
X76024755Y-64163147D01*
X75990000Y-64292857D01*
X75990000Y-64427143D01*
X76024755Y-64556853D01*
X76055440Y-64610000D01*
X75150000Y-64610000D01*
X75150000Y-65257844D01*
X75156401Y-65317372D01*
X75156403Y-65317379D01*
X75206645Y-65452086D01*
X75206646Y-65452088D01*
X75283890Y-65555272D01*
X75308307Y-65620736D01*
X75293456Y-65689009D01*
X75283890Y-65703894D01*
X75206204Y-65807669D01*
X75206202Y-65807671D01*
X75155908Y-65942517D01*
X75149914Y-65998278D01*
X75149501Y-66002123D01*
X75149500Y-66002135D01*
X75149500Y-66835616D01*
X75149028Y-66846423D01*
X75144341Y-66899997D01*
X75144341Y-66900002D01*
X75149028Y-66953576D01*
X75149500Y-66964383D01*
X75149500Y-67797870D01*
X75149501Y-67797876D01*
X75155908Y-67857483D01*
X75206202Y-67992328D01*
X75206203Y-67992330D01*
X75283578Y-68095689D01*
X75307995Y-68161153D01*
X75293144Y-68229426D01*
X75283578Y-68244311D01*
X75206203Y-68347669D01*
X75206202Y-68347671D01*
X75155908Y-68482517D01*
X75149501Y-68542116D01*
X75149501Y-68542123D01*
X75149500Y-68542135D01*
X75149500Y-69375616D01*
X75149028Y-69386423D01*
X75144341Y-69439997D01*
X75144341Y-69440002D01*
X75149028Y-69493576D01*
X75149500Y-69504383D01*
X75149500Y-70337870D01*
X75149501Y-70337876D01*
X75155908Y-70397483D01*
X75206202Y-70532328D01*
X75206203Y-70532330D01*
X75283578Y-70635689D01*
X75307995Y-70701153D01*
X75293144Y-70769426D01*
X75283578Y-70784311D01*
X75206203Y-70887669D01*
X75206202Y-70887671D01*
X75155908Y-71022517D01*
X75149957Y-71077874D01*
X75149501Y-71082123D01*
X75149500Y-71082135D01*
X75149500Y-71915616D01*
X75149028Y-71926423D01*
X75144341Y-71979997D01*
X75144341Y-71980002D01*
X75149028Y-72033576D01*
X75149500Y-72044383D01*
X75149500Y-72877870D01*
X75149501Y-72877876D01*
X75155908Y-72937483D01*
X75206202Y-73072328D01*
X75206203Y-73072330D01*
X75283578Y-73175689D01*
X75307995Y-73241153D01*
X75293144Y-73309426D01*
X75283578Y-73324311D01*
X75206203Y-73427669D01*
X75206202Y-73427671D01*
X75155908Y-73562517D01*
X75149501Y-73622116D01*
X75149501Y-73622123D01*
X75149500Y-73622135D01*
X75149500Y-74455616D01*
X75149028Y-74466423D01*
X75144341Y-74519997D01*
X75144341Y-74520002D01*
X75149028Y-74573576D01*
X75149500Y-74584383D01*
X75149500Y-75417870D01*
X75149501Y-75417876D01*
X75155908Y-75477483D01*
X75206202Y-75612328D01*
X75206203Y-75612330D01*
X75283578Y-75715689D01*
X75307995Y-75781153D01*
X75293144Y-75849426D01*
X75283578Y-75864311D01*
X75206203Y-75967669D01*
X75206202Y-75967671D01*
X75155908Y-76102517D01*
X75149501Y-76162116D01*
X75149501Y-76162123D01*
X75149500Y-76162135D01*
X75149500Y-77957870D01*
X75149501Y-77957876D01*
X75155908Y-78017483D01*
X75206202Y-78152328D01*
X75206203Y-78152330D01*
X75283578Y-78255689D01*
X75307995Y-78321153D01*
X75293144Y-78389426D01*
X75283578Y-78404311D01*
X75206203Y-78507669D01*
X75206202Y-78507671D01*
X75155908Y-78642517D01*
X75149501Y-78702116D01*
X75149501Y-78702123D01*
X75149500Y-78702135D01*
X75149500Y-79535616D01*
X75149028Y-79546423D01*
X75144341Y-79599997D01*
X75144341Y-79600002D01*
X75149028Y-79653576D01*
X75149500Y-79664383D01*
X75149500Y-80497870D01*
X75149501Y-80497876D01*
X75155908Y-80557483D01*
X75206202Y-80692328D01*
X75206203Y-80692330D01*
X75283578Y-80795689D01*
X75307995Y-80861153D01*
X75293144Y-80929426D01*
X75283578Y-80944311D01*
X75206203Y-81047669D01*
X75206202Y-81047671D01*
X75155908Y-81182517D01*
X75149501Y-81242116D01*
X75149501Y-81242123D01*
X75149500Y-81242135D01*
X75149500Y-82075616D01*
X75149028Y-82086423D01*
X75144341Y-82139997D01*
X75144341Y-82140002D01*
X75149028Y-82193576D01*
X75149500Y-82204383D01*
X75149500Y-83037870D01*
X75149501Y-83037876D01*
X75155908Y-83097483D01*
X75206202Y-83232328D01*
X75206203Y-83232330D01*
X75283578Y-83335689D01*
X75307995Y-83401153D01*
X75293144Y-83469426D01*
X75283578Y-83484311D01*
X75206203Y-83587669D01*
X75206202Y-83587671D01*
X75155908Y-83722517D01*
X75149501Y-83782116D01*
X75149501Y-83782123D01*
X75149500Y-83782135D01*
X75149500Y-84615616D01*
X75149028Y-84626423D01*
X75144341Y-84679997D01*
X75144341Y-84680002D01*
X75149028Y-84733576D01*
X75149500Y-84744383D01*
X75149500Y-85577870D01*
X75149501Y-85577876D01*
X75155908Y-85637483D01*
X75206202Y-85772328D01*
X75206203Y-85772330D01*
X75283578Y-85875689D01*
X75307995Y-85941153D01*
X75293144Y-86009426D01*
X75283578Y-86024311D01*
X75206203Y-86127669D01*
X75206202Y-86127671D01*
X75155908Y-86262517D01*
X75149501Y-86322116D01*
X75149501Y-86322123D01*
X75149500Y-86322135D01*
X75149500Y-87155616D01*
X75149028Y-87166423D01*
X75144341Y-87219997D01*
X75144341Y-87220002D01*
X75149028Y-87273576D01*
X75149500Y-87284383D01*
X75149500Y-88117870D01*
X75149501Y-88117876D01*
X75155908Y-88177483D01*
X75206202Y-88312328D01*
X75206206Y-88312335D01*
X75283889Y-88416105D01*
X75308307Y-88481569D01*
X75293456Y-88549842D01*
X75283890Y-88564727D01*
X75206647Y-88667910D01*
X75206645Y-88667913D01*
X75156403Y-88802620D01*
X75156401Y-88802627D01*
X75150000Y-88862155D01*
X75150000Y-89510000D01*
X76055440Y-89510000D01*
X76024755Y-89563147D01*
X75990000Y-89692857D01*
X75990000Y-89827143D01*
X76024755Y-89956853D01*
X76055440Y-90010000D01*
X75150000Y-90010000D01*
X75150000Y-90657844D01*
X75156401Y-90717372D01*
X75156403Y-90717379D01*
X75206645Y-90852086D01*
X75206646Y-90852088D01*
X75283890Y-90955272D01*
X75308307Y-91020736D01*
X75293456Y-91089009D01*
X75283890Y-91103894D01*
X75206204Y-91207669D01*
X75206202Y-91207671D01*
X75155908Y-91342517D01*
X75149501Y-91402116D01*
X75149501Y-91402123D01*
X75149500Y-91402135D01*
X75149500Y-92235616D01*
X75149028Y-92246423D01*
X75144341Y-92299997D01*
X75144341Y-92300002D01*
X75149028Y-92353576D01*
X75149500Y-92364383D01*
X75149500Y-93197870D01*
X75149501Y-93197876D01*
X75155908Y-93257483D01*
X75206202Y-93392328D01*
X75206203Y-93392330D01*
X75283578Y-93495689D01*
X75307995Y-93561153D01*
X75293144Y-93629426D01*
X75283578Y-93644311D01*
X75206203Y-93747669D01*
X75206202Y-93747671D01*
X75155908Y-93882517D01*
X75149501Y-93942116D01*
X75149501Y-93942123D01*
X75149500Y-93942135D01*
X75149500Y-94775616D01*
X75149028Y-94786423D01*
X75144341Y-94839997D01*
X75144341Y-94840002D01*
X75149028Y-94893576D01*
X75149500Y-94904383D01*
X75149500Y-95737870D01*
X75149501Y-95737876D01*
X75155908Y-95797483D01*
X75206202Y-95932328D01*
X75206203Y-95932330D01*
X75283578Y-96035689D01*
X75307995Y-96101153D01*
X75293144Y-96169426D01*
X75283578Y-96184311D01*
X75206203Y-96287669D01*
X75206202Y-96287671D01*
X75155908Y-96422517D01*
X75149501Y-96482116D01*
X75149501Y-96482123D01*
X75149500Y-96482135D01*
X75149500Y-97315616D01*
X75149028Y-97326423D01*
X75144341Y-97379997D01*
X75144341Y-97380002D01*
X75149028Y-97433576D01*
X75149500Y-97444383D01*
X75149500Y-98277870D01*
X75149501Y-98277876D01*
X75155908Y-98337483D01*
X75206202Y-98472328D01*
X75206203Y-98472330D01*
X75283578Y-98575689D01*
X75307995Y-98641153D01*
X75293144Y-98709426D01*
X75283578Y-98724311D01*
X75206203Y-98827669D01*
X75206202Y-98827671D01*
X75155908Y-98962517D01*
X75151825Y-99000500D01*
X75149501Y-99022123D01*
X75149500Y-99022135D01*
X75149500Y-99855616D01*
X75149028Y-99866423D01*
X75144341Y-99919997D01*
X75144341Y-99920002D01*
X75149028Y-99973576D01*
X75149500Y-99984383D01*
X75149500Y-100817870D01*
X75149501Y-100817876D01*
X75155908Y-100877483D01*
X75206202Y-101012328D01*
X75206203Y-101012330D01*
X75283578Y-101115689D01*
X75307995Y-101181153D01*
X75293144Y-101249426D01*
X75283578Y-101264311D01*
X75206203Y-101367669D01*
X75206202Y-101367671D01*
X75155908Y-101502517D01*
X75149501Y-101562116D01*
X75149501Y-101562123D01*
X75149500Y-101562135D01*
X75149500Y-103357870D01*
X75149501Y-103357876D01*
X75155908Y-103417483D01*
X75206202Y-103552328D01*
X75206203Y-103552330D01*
X75283578Y-103655689D01*
X75307995Y-103721153D01*
X75293144Y-103789426D01*
X75283578Y-103804311D01*
X75206203Y-103907669D01*
X75206202Y-103907671D01*
X75155908Y-104042517D01*
X75149501Y-104102116D01*
X75149501Y-104102123D01*
X75149500Y-104102135D01*
X75149500Y-104935616D01*
X75149028Y-104946423D01*
X75144341Y-104999997D01*
X75144341Y-105000002D01*
X75149028Y-105053576D01*
X75149500Y-105064383D01*
X75149500Y-105897870D01*
X75149501Y-105897876D01*
X75155908Y-105957483D01*
X75206202Y-106092328D01*
X75206203Y-106092330D01*
X75283578Y-106195689D01*
X75307995Y-106261153D01*
X75293144Y-106329426D01*
X75283578Y-106344311D01*
X75206203Y-106447669D01*
X75206202Y-106447671D01*
X75155908Y-106582517D01*
X75149501Y-106642116D01*
X75149501Y-106642123D01*
X75149500Y-106642135D01*
X75149500Y-107475616D01*
X75149028Y-107486423D01*
X75144341Y-107539997D01*
X75144341Y-107540002D01*
X71500499Y-107540002D01*
X71500499Y-107374381D01*
X71500971Y-107363578D01*
X71505659Y-107310000D01*
X71505659Y-107309999D01*
X71500971Y-107256418D01*
X71500499Y-107245610D01*
X71500499Y-106412129D01*
X71500498Y-106412123D01*
X71500497Y-106412116D01*
X71494091Y-106352517D01*
X71491030Y-106344311D01*
X71443797Y-106217671D01*
X71443793Y-106217664D01*
X71357547Y-106102455D01*
X71357544Y-106102452D01*
X71242335Y-106016206D01*
X71242328Y-106016202D01*
X71107482Y-105965908D01*
X71107483Y-105965908D01*
X71047883Y-105959501D01*
X71047881Y-105959500D01*
X71047873Y-105959500D01*
X71047865Y-105959500D01*
X70214383Y-105959500D01*
X70203576Y-105959028D01*
X70150002Y-105954341D01*
X70149999Y-105954341D01*
X70114865Y-105957414D01*
X70096421Y-105959028D01*
X70085616Y-105959500D01*
X69252129Y-105959500D01*
X69252123Y-105959501D01*
X69192516Y-105965908D01*
X69057671Y-106016202D01*
X69057669Y-106016203D01*
X68954311Y-106093578D01*
X68888847Y-106117995D01*
X68820574Y-106103144D01*
X68805689Y-106093578D01*
X68702330Y-106016203D01*
X68702328Y-106016202D01*
X68567482Y-105965908D01*
X68567483Y-105965908D01*
X68507883Y-105959501D01*
X68507881Y-105959500D01*
X68507873Y-105959500D01*
X68507864Y-105959500D01*
X66712129Y-105959500D01*
X66712123Y-105959501D01*
X66652516Y-105965908D01*
X66517671Y-106016202D01*
X66517669Y-106016203D01*
X66414311Y-106093578D01*
X66348847Y-106117995D01*
X66280574Y-106103144D01*
X66265689Y-106093578D01*
X66162330Y-106016203D01*
X66162328Y-106016202D01*
X66027482Y-105965908D01*
X66027483Y-105965908D01*
X65967883Y-105959501D01*
X65967881Y-105959500D01*
X65967873Y-105959500D01*
X65967865Y-105959500D01*
X65134383Y-105959500D01*
X65123576Y-105959028D01*
X65070002Y-105954341D01*
X65069999Y-105954341D01*
X65034865Y-105957414D01*
X65016421Y-105959028D01*
X65005616Y-105959500D01*
X64172129Y-105959500D01*
X64172123Y-105959501D01*
X64112516Y-105965908D01*
X63977671Y-106016202D01*
X63977664Y-106016206D01*
X63862455Y-106102452D01*
X63862452Y-106102455D01*
X63776206Y-106217664D01*
X63776202Y-106217671D01*
X63725908Y-106352517D01*
X63719501Y-106412116D01*
X63719501Y-106412123D01*
X63719500Y-106412135D01*
X63719500Y-107245618D01*
X63719028Y-107256425D01*
X63714341Y-107309997D01*
X63714341Y-107310001D01*
X60070499Y-107310001D01*
X60070499Y-106642129D01*
X60070498Y-106642123D01*
X60070497Y-106642116D01*
X60064091Y-106582517D01*
X60035057Y-106504674D01*
X60013797Y-106447671D01*
X60013795Y-106447668D01*
X59987195Y-106412135D01*
X59936421Y-106344309D01*
X59912004Y-106278848D01*
X59926855Y-106210575D01*
X59936416Y-106195696D01*
X60013796Y-106092331D01*
X60064091Y-105957483D01*
X60070500Y-105897873D01*
X60070499Y-105064383D01*
X60070971Y-105053576D01*
X60075659Y-105000000D01*
X60075659Y-104999999D01*
X60070971Y-104946421D01*
X60070499Y-104935613D01*
X60070499Y-104102129D01*
X60070498Y-104102123D01*
X60070497Y-104102116D01*
X60064091Y-104042517D01*
X60035057Y-103964674D01*
X60013797Y-103907671D01*
X60013795Y-103907668D01*
X60013794Y-103907666D01*
X59936421Y-103804309D01*
X59912004Y-103738848D01*
X59926855Y-103670575D01*
X59936416Y-103655696D01*
X60013796Y-103552331D01*
X60064091Y-103417483D01*
X60070500Y-103357873D01*
X60070499Y-101562128D01*
X60064091Y-101502517D01*
X60013796Y-101367669D01*
X59936421Y-101264309D01*
X59912004Y-101198848D01*
X59926855Y-101130575D01*
X59936416Y-101115696D01*
X60013796Y-101012331D01*
X60064091Y-100877483D01*
X60070500Y-100817873D01*
X60070499Y-99984383D01*
X60070971Y-99973576D01*
X60075659Y-99920000D01*
X60075659Y-99919999D01*
X60070971Y-99866421D01*
X60070499Y-99855613D01*
X60070499Y-99022129D01*
X60070498Y-99022123D01*
X60070497Y-99022116D01*
X60064091Y-98962517D01*
X60063944Y-98962124D01*
X60013797Y-98827671D01*
X60013795Y-98827668D01*
X60002243Y-98812236D01*
X59936421Y-98724309D01*
X59912004Y-98658848D01*
X59926855Y-98590575D01*
X59936416Y-98575696D01*
X60013796Y-98472331D01*
X60064091Y-98337483D01*
X60070500Y-98277873D01*
X60070499Y-97444383D01*
X60070971Y-97433576D01*
X60075659Y-97380000D01*
X60075659Y-97379999D01*
X60070971Y-97326421D01*
X60070499Y-97315613D01*
X60070499Y-96482129D01*
X60070498Y-96482123D01*
X60070497Y-96482116D01*
X60064091Y-96422517D01*
X60013796Y-96287669D01*
X59936421Y-96184309D01*
X59912004Y-96118848D01*
X59926855Y-96050575D01*
X59936416Y-96035696D01*
X60013796Y-95932331D01*
X60064091Y-95797483D01*
X60070500Y-95737873D01*
X60070499Y-94904383D01*
X60070971Y-94893576D01*
X60075659Y-94840000D01*
X60075659Y-94839999D01*
X60070971Y-94786421D01*
X60070499Y-94775613D01*
X60070499Y-93942129D01*
X60070498Y-93942123D01*
X60070497Y-93942116D01*
X60064091Y-93882517D01*
X60063944Y-93882124D01*
X60013797Y-93747671D01*
X60013795Y-93747668D01*
X60002243Y-93732236D01*
X59936421Y-93644309D01*
X59912004Y-93578848D01*
X59926855Y-93510575D01*
X59936416Y-93495696D01*
X60013796Y-93392331D01*
X60064091Y-93257483D01*
X60070500Y-93197873D01*
X60070499Y-92364383D01*
X60070971Y-92353576D01*
X60075659Y-92300000D01*
X60075659Y-92299999D01*
X60070971Y-92246421D01*
X60070499Y-92235613D01*
X60070499Y-91402129D01*
X60070498Y-91402123D01*
X60070497Y-91402116D01*
X60064091Y-91342517D01*
X60013796Y-91207669D01*
X59936421Y-91104309D01*
X59912004Y-91038848D01*
X59926855Y-90970575D01*
X59936416Y-90955696D01*
X60013796Y-90852331D01*
X60064091Y-90717483D01*
X60070500Y-90657873D01*
X60070499Y-88862128D01*
X60064091Y-88802517D01*
X60052031Y-88770183D01*
X60013797Y-88667671D01*
X60013795Y-88667668D01*
X59936421Y-88564309D01*
X59912004Y-88498848D01*
X59926855Y-88430575D01*
X59936416Y-88415696D01*
X60013796Y-88312331D01*
X60064091Y-88177483D01*
X60070500Y-88117873D01*
X60070499Y-87284383D01*
X60070971Y-87273576D01*
X60075659Y-87220000D01*
X60075659Y-87219999D01*
X60070971Y-87166421D01*
X60070499Y-87155613D01*
X60070499Y-86322129D01*
X60070498Y-86322123D01*
X60070497Y-86322116D01*
X60064091Y-86262517D01*
X60059866Y-86251190D01*
X60013797Y-86127671D01*
X60013795Y-86127668D01*
X60012172Y-86125500D01*
X59936421Y-86024309D01*
X59912004Y-85958848D01*
X59926855Y-85890575D01*
X59936416Y-85875696D01*
X60013796Y-85772331D01*
X60064091Y-85637483D01*
X60070500Y-85577873D01*
X60070499Y-84744383D01*
X60070971Y-84733576D01*
X60075659Y-84680000D01*
X60075659Y-84679999D01*
X60070971Y-84626421D01*
X60070499Y-84615613D01*
X60070499Y-83782129D01*
X60070498Y-83782123D01*
X60070497Y-83782116D01*
X60064091Y-83722517D01*
X60013796Y-83587669D01*
X59936421Y-83484309D01*
X59912004Y-83418848D01*
X59926855Y-83350575D01*
X59936416Y-83335696D01*
X60013796Y-83232331D01*
X60064091Y-83097483D01*
X60070500Y-83037873D01*
X60070499Y-82204383D01*
X60070971Y-82193576D01*
X60075659Y-82140000D01*
X60075659Y-82139999D01*
X60070971Y-82086421D01*
X60070499Y-82075613D01*
X60070499Y-81242129D01*
X60070498Y-81242123D01*
X60070497Y-81242116D01*
X60064091Y-81182517D01*
X60013796Y-81047669D01*
X59936421Y-80944309D01*
X59912004Y-80878848D01*
X59926855Y-80810575D01*
X59936416Y-80795696D01*
X60013796Y-80692331D01*
X60064091Y-80557483D01*
X60070500Y-80497873D01*
X60070499Y-79664383D01*
X60070971Y-79653576D01*
X60075659Y-79600000D01*
X60075659Y-79599999D01*
X60070971Y-79546421D01*
X60070499Y-79535613D01*
X60070499Y-78702129D01*
X60070498Y-78702123D01*
X60070497Y-78702116D01*
X60064091Y-78642517D01*
X60013796Y-78507669D01*
X59936421Y-78404309D01*
X59912004Y-78338848D01*
X59926855Y-78270575D01*
X59936416Y-78255696D01*
X60013796Y-78152331D01*
X60064091Y-78017483D01*
X60070500Y-77957873D01*
X60070499Y-76162128D01*
X60064091Y-76102517D01*
X60013796Y-75967669D01*
X59936421Y-75864309D01*
X59912004Y-75798848D01*
X59926855Y-75730575D01*
X59936416Y-75715696D01*
X60013796Y-75612331D01*
X60064091Y-75477483D01*
X60070500Y-75417873D01*
X60070499Y-74584383D01*
X60070971Y-74573576D01*
X60075659Y-74520000D01*
X60075659Y-74519999D01*
X60070971Y-74466421D01*
X60070499Y-74455613D01*
X60070499Y-73622129D01*
X60070498Y-73622123D01*
X60070497Y-73622116D01*
X60064091Y-73562517D01*
X60013796Y-73427669D01*
X59936421Y-73324309D01*
X59912004Y-73258848D01*
X59926855Y-73190575D01*
X59936416Y-73175696D01*
X60013796Y-73072331D01*
X60064091Y-72937483D01*
X60070500Y-72877873D01*
X60070499Y-72044383D01*
X60070971Y-72033576D01*
X60075659Y-71980000D01*
X60075659Y-71979999D01*
X60070971Y-71926421D01*
X60070499Y-71915613D01*
X60070499Y-71082129D01*
X60070498Y-71082123D01*
X60070497Y-71082116D01*
X60064091Y-71022517D01*
X60013796Y-70887669D01*
X59936421Y-70784309D01*
X59912004Y-70718848D01*
X59926855Y-70650575D01*
X59936416Y-70635696D01*
X60013796Y-70532331D01*
X60064091Y-70397483D01*
X60070500Y-70337873D01*
X60070499Y-69504383D01*
X60070971Y-69493576D01*
X60075659Y-69440000D01*
X60075659Y-69439999D01*
X60070971Y-69386421D01*
X60070499Y-69375613D01*
X60070499Y-68542129D01*
X60070498Y-68542123D01*
X60070497Y-68542116D01*
X60064091Y-68482517D01*
X60013796Y-68347669D01*
X59936421Y-68244309D01*
X59912004Y-68178848D01*
X59926855Y-68110575D01*
X59936416Y-68095696D01*
X60013796Y-67992331D01*
X60064091Y-67857483D01*
X60070500Y-67797873D01*
X60070499Y-66964383D01*
X60070971Y-66953576D01*
X60075659Y-66900000D01*
X60075659Y-66899999D01*
X60070971Y-66846421D01*
X60070499Y-66835613D01*
X60070499Y-66002129D01*
X60070498Y-66002123D01*
X60070497Y-66002116D01*
X60064091Y-65942517D01*
X60062937Y-65939424D01*
X60013797Y-65807671D01*
X60013795Y-65807668D01*
X59936421Y-65704309D01*
X59912004Y-65638848D01*
X59926855Y-65570575D01*
X59936416Y-65555696D01*
X60013796Y-65452331D01*
X60064091Y-65317483D01*
X60070500Y-65257873D01*
X60070499Y-63462128D01*
X60064091Y-63402517D01*
X60063748Y-63401598D01*
X60013797Y-63267671D01*
X60013795Y-63267668D01*
X59998231Y-63246877D01*
X59936421Y-63164309D01*
X59912004Y-63098848D01*
X59926855Y-63030575D01*
X59936416Y-63015696D01*
X60013796Y-62912331D01*
X60064091Y-62777483D01*
X60070500Y-62717873D01*
X60070500Y-62440002D01*
X63929723Y-62440002D01*
X63948793Y-62657975D01*
X63948793Y-62657979D01*
X64005422Y-62869322D01*
X64005424Y-62869326D01*
X64005425Y-62869330D01*
X64025477Y-62912331D01*
X64097897Y-63067638D01*
X64107652Y-63081569D01*
X64223402Y-63246877D01*
X64378123Y-63401598D01*
X64557361Y-63527102D01*
X64755670Y-63619575D01*
X64967023Y-63676207D01*
X65149926Y-63692208D01*
X65184998Y-63695277D01*
X65185000Y-63695277D01*
X65185002Y-63695277D01*
X65213254Y-63692805D01*
X65402977Y-63676207D01*
X65614330Y-63619575D01*
X65812639Y-63527102D01*
X65991877Y-63401598D01*
X66146598Y-63246877D01*
X66272102Y-63067639D01*
X66364575Y-62869330D01*
X66421207Y-62657977D01*
X66440277Y-62440002D01*
X68779723Y-62440002D01*
X68798793Y-62657975D01*
X68798793Y-62657979D01*
X68855422Y-62869322D01*
X68855424Y-62869326D01*
X68855425Y-62869330D01*
X68875477Y-62912331D01*
X68947897Y-63067638D01*
X68957652Y-63081569D01*
X69073402Y-63246877D01*
X69228123Y-63401598D01*
X69407361Y-63527102D01*
X69605670Y-63619575D01*
X69817023Y-63676207D01*
X69999926Y-63692208D01*
X70034998Y-63695277D01*
X70035000Y-63695277D01*
X70035002Y-63695277D01*
X70063254Y-63692805D01*
X70252977Y-63676207D01*
X70464330Y-63619575D01*
X70662639Y-63527102D01*
X70841877Y-63401598D01*
X70996598Y-63246877D01*
X71122102Y-63067639D01*
X71214575Y-62869330D01*
X71271207Y-62657977D01*
X71290277Y-62440000D01*
X71271207Y-62222023D01*
X71214575Y-62010670D01*
X71122102Y-61812362D01*
X71122100Y-61812359D01*
X71122099Y-61812357D01*
X70996599Y-61633124D01*
X70996596Y-61633121D01*
X70841877Y-61478402D01*
X70662639Y-61352898D01*
X70662640Y-61352898D01*
X70662638Y-61352897D01*
X70563484Y-61306661D01*
X70464330Y-61260425D01*
X70464326Y-61260424D01*
X70464322Y-61260422D01*
X70252977Y-61203793D01*
X70035002Y-61184723D01*
X70034998Y-61184723D01*
X69889682Y-61197436D01*
X69817023Y-61203793D01*
X69817020Y-61203793D01*
X69605677Y-61260422D01*
X69605668Y-61260426D01*
X69407361Y-61352898D01*
X69407357Y-61352900D01*
X69228121Y-61478402D01*
X69073402Y-61633121D01*
X68947900Y-61812357D01*
X68947898Y-61812361D01*
X68855426Y-62010668D01*
X68855422Y-62010677D01*
X68798793Y-62222020D01*
X68798793Y-62222024D01*
X68779723Y-62439997D01*
X68779723Y-62440002D01*
X66440277Y-62440002D01*
X66440277Y-62440000D01*
X66421207Y-62222023D01*
X66364575Y-62010670D01*
X66272102Y-61812362D01*
X66272100Y-61812359D01*
X66272099Y-61812357D01*
X66146599Y-61633124D01*
X66146596Y-61633121D01*
X65991877Y-61478402D01*
X65812639Y-61352898D01*
X65812640Y-61352898D01*
X65812638Y-61352897D01*
X65713484Y-61306661D01*
X65614330Y-61260425D01*
X65614326Y-61260424D01*
X65614322Y-61260422D01*
X65402977Y-61203793D01*
X65185002Y-61184723D01*
X65184998Y-61184723D01*
X65039682Y-61197436D01*
X64967023Y-61203793D01*
X64967020Y-61203793D01*
X64755677Y-61260422D01*
X64755668Y-61260426D01*
X64557361Y-61352898D01*
X64557357Y-61352900D01*
X64378121Y-61478402D01*
X64223402Y-61633121D01*
X64097900Y-61812357D01*
X64097898Y-61812361D01*
X64005426Y-62010668D01*
X64005422Y-62010677D01*
X63948793Y-62222020D01*
X63948793Y-62222024D01*
X63929723Y-62439997D01*
X63929723Y-62440002D01*
X60070500Y-62440002D01*
X60070499Y-61884383D01*
X60070971Y-61873576D01*
X60075659Y-61820000D01*
X60075659Y-61819999D01*
X60070971Y-61766421D01*
X60070499Y-61755613D01*
X60070499Y-60922129D01*
X60070498Y-60922123D01*
X60070497Y-60922116D01*
X60064091Y-60862517D01*
X60043738Y-60807949D01*
X60013797Y-60727671D01*
X60013795Y-60727668D01*
X59992749Y-60699554D01*
X59936421Y-60624309D01*
X59912004Y-60558848D01*
X59926855Y-60490575D01*
X59936416Y-60475696D01*
X60013796Y-60372331D01*
X60064091Y-60237483D01*
X60070500Y-60177873D01*
X60070499Y-59410006D01*
X63479700Y-59410006D01*
X63498864Y-59641297D01*
X63498866Y-59641308D01*
X63555842Y-59866300D01*
X63649075Y-60078848D01*
X63776016Y-60273147D01*
X63776019Y-60273151D01*
X63776021Y-60273153D01*
X63933216Y-60443913D01*
X63933219Y-60443915D01*
X63933222Y-60443918D01*
X64116365Y-60586464D01*
X64116371Y-60586468D01*
X64116374Y-60586470D01*
X64320497Y-60696936D01*
X64410019Y-60727669D01*
X64540015Y-60772297D01*
X64540017Y-60772297D01*
X64540019Y-60772298D01*
X64768951Y-60810500D01*
X64768952Y-60810500D01*
X65001048Y-60810500D01*
X65001049Y-60810500D01*
X65229981Y-60772298D01*
X65449503Y-60696936D01*
X65653626Y-60586470D01*
X65836784Y-60443913D01*
X65993979Y-60273153D01*
X66120924Y-60078849D01*
X66214157Y-59866300D01*
X66271134Y-59641305D01*
X66271135Y-59641297D01*
X66290300Y-59410006D01*
X68929700Y-59410006D01*
X68948864Y-59641297D01*
X68948866Y-59641308D01*
X69005842Y-59866300D01*
X69099075Y-60078848D01*
X69226016Y-60273147D01*
X69226019Y-60273151D01*
X69226021Y-60273153D01*
X69383216Y-60443913D01*
X69383219Y-60443915D01*
X69383222Y-60443918D01*
X69566365Y-60586464D01*
X69566371Y-60586468D01*
X69566374Y-60586470D01*
X69770497Y-60696936D01*
X69860019Y-60727669D01*
X69990015Y-60772297D01*
X69990017Y-60772297D01*
X69990019Y-60772298D01*
X70218951Y-60810500D01*
X70218952Y-60810500D01*
X70451048Y-60810500D01*
X70451049Y-60810500D01*
X70679981Y-60772298D01*
X70899503Y-60696936D01*
X71103626Y-60586470D01*
X71286784Y-60443913D01*
X71443979Y-60273153D01*
X71570924Y-60078849D01*
X71664157Y-59866300D01*
X71721134Y-59641305D01*
X71721135Y-59641297D01*
X71740300Y-59410006D01*
X71740300Y-59409993D01*
X71721135Y-59178702D01*
X71721133Y-59178691D01*
X71664157Y-58953699D01*
X71570924Y-58741151D01*
X71443983Y-58546852D01*
X71443980Y-58546849D01*
X71443979Y-58546847D01*
X71286784Y-58376087D01*
X71286779Y-58376083D01*
X71286777Y-58376081D01*
X71103634Y-58233535D01*
X71103628Y-58233531D01*
X70899504Y-58123064D01*
X70899495Y-58123061D01*
X70679984Y-58047702D01*
X70508282Y-58019050D01*
X70451049Y-58009500D01*
X70218951Y-58009500D01*
X70173164Y-58017140D01*
X69990015Y-58047702D01*
X69770504Y-58123061D01*
X69770495Y-58123064D01*
X69566371Y-58233531D01*
X69566365Y-58233535D01*
X69383222Y-58376081D01*
X69383219Y-58376084D01*
X69383216Y-58376086D01*
X69383216Y-58376087D01*
X69324267Y-58440122D01*
X69226016Y-58546852D01*
X69099075Y-58741151D01*
X69005842Y-58953699D01*
X68948866Y-59178691D01*
X68948864Y-59178702D01*
X68929700Y-59409993D01*
X68929700Y-59410006D01*
X66290300Y-59410006D01*
X66290300Y-59409993D01*
X66271135Y-59178702D01*
X66271133Y-59178691D01*
X66214157Y-58953699D01*
X66120924Y-58741151D01*
X65993983Y-58546852D01*
X65993980Y-58546849D01*
X65993979Y-58546847D01*
X65836784Y-58376087D01*
X65836779Y-58376083D01*
X65836777Y-58376081D01*
X65653634Y-58233535D01*
X65653628Y-58233531D01*
X65449504Y-58123064D01*
X65449495Y-58123061D01*
X65229984Y-58047702D01*
X65058282Y-58019050D01*
X65001049Y-58009500D01*
X64768951Y-58009500D01*
X64723164Y-58017140D01*
X64540015Y-58047702D01*
X64320504Y-58123061D01*
X64320495Y-58123064D01*
X64116371Y-58233531D01*
X64116365Y-58233535D01*
X63933222Y-58376081D01*
X63933219Y-58376084D01*
X63933216Y-58376086D01*
X63933216Y-58376087D01*
X63874267Y-58440122D01*
X63776016Y-58546852D01*
X63649075Y-58741151D01*
X63555842Y-58953699D01*
X63498866Y-59178691D01*
X63498864Y-59178702D01*
X63479700Y-59409993D01*
X63479700Y-59410006D01*
X60070499Y-59410006D01*
X60070499Y-59344383D01*
X60070971Y-59333576D01*
X60075659Y-59280000D01*
X60075659Y-59279999D01*
X60070971Y-59226421D01*
X60070499Y-59215613D01*
X60070499Y-58382129D01*
X60070498Y-58382123D01*
X60070497Y-58382116D01*
X60064091Y-58322517D01*
X60030901Y-58233531D01*
X60013797Y-58187671D01*
X60013793Y-58187664D01*
X59927547Y-58072455D01*
X59927544Y-58072452D01*
X59812335Y-57986206D01*
X59812328Y-57986202D01*
X59677482Y-57935908D01*
X59677483Y-57935908D01*
X59617883Y-57929501D01*
X59617881Y-57929500D01*
X59617873Y-57929500D01*
X59617865Y-57929500D01*
X58784380Y-57929500D01*
X58773573Y-57929028D01*
X58747024Y-57926705D01*
X58720001Y-57924341D01*
X58719998Y-57924341D01*
X58666424Y-57929028D01*
X58655617Y-57929500D01*
X56022129Y-57929500D01*
X56022123Y-57929501D01*
X55962516Y-57935908D01*
X55827671Y-57986202D01*
X55827664Y-57986206D01*
X55712455Y-58072452D01*
X55712452Y-58072455D01*
X55626206Y-58187664D01*
X55626202Y-58187671D01*
X55575908Y-58322517D01*
X55570149Y-58376087D01*
X55569501Y-58382123D01*
X55569500Y-58382135D01*
X55569500Y-60177870D01*
X55569501Y-60177876D01*
X55575908Y-60237483D01*
X55626202Y-60372328D01*
X55626203Y-60372330D01*
X55703578Y-60475689D01*
X55727995Y-60541153D01*
X55713144Y-60609426D01*
X55703578Y-60624311D01*
X55626203Y-60727669D01*
X55626202Y-60727671D01*
X55575908Y-60862517D01*
X55569501Y-60922116D01*
X55569501Y-60922123D01*
X55569500Y-60922135D01*
X55569500Y-62717870D01*
X55569501Y-62717876D01*
X55575908Y-62777483D01*
X55626202Y-62912328D01*
X55626203Y-62912330D01*
X55703578Y-63015689D01*
X55727995Y-63081153D01*
X55713144Y-63149426D01*
X55703578Y-63164309D01*
X55703265Y-63164729D01*
X55626203Y-63267669D01*
X55626202Y-63267671D01*
X55575908Y-63402517D01*
X55569501Y-63462116D01*
X55569501Y-63462123D01*
X55569500Y-63462135D01*
X55569500Y-65257870D01*
X55569501Y-65257876D01*
X55575908Y-65317483D01*
X55626202Y-65452328D01*
X55626203Y-65452330D01*
X55703578Y-65555689D01*
X55727995Y-65621153D01*
X55713144Y-65689426D01*
X55703578Y-65704311D01*
X55626203Y-65807669D01*
X55626202Y-65807671D01*
X55575908Y-65942517D01*
X55569914Y-65998278D01*
X55569501Y-66002123D01*
X55569500Y-66002135D01*
X55569500Y-67797870D01*
X55569501Y-67797876D01*
X55575908Y-67857483D01*
X55626202Y-67992328D01*
X55626203Y-67992330D01*
X55703578Y-68095689D01*
X55727995Y-68161153D01*
X55713144Y-68229426D01*
X55703578Y-68244311D01*
X55626203Y-68347669D01*
X55626202Y-68347671D01*
X55575908Y-68482517D01*
X55569501Y-68542116D01*
X55569501Y-68542123D01*
X55569500Y-68542135D01*
X55569500Y-70337870D01*
X55569501Y-70337876D01*
X55575908Y-70397483D01*
X55626202Y-70532328D01*
X55626203Y-70532330D01*
X55703578Y-70635689D01*
X55727995Y-70701153D01*
X55713144Y-70769426D01*
X55703578Y-70784311D01*
X55626203Y-70887669D01*
X55626202Y-70887671D01*
X55575908Y-71022517D01*
X55569957Y-71077874D01*
X55569501Y-71082123D01*
X55569500Y-71082135D01*
X55569500Y-72877870D01*
X55569501Y-72877876D01*
X55575908Y-72937483D01*
X55626202Y-73072328D01*
X55626203Y-73072330D01*
X55703578Y-73175689D01*
X55727995Y-73241153D01*
X55713144Y-73309426D01*
X55703578Y-73324311D01*
X55626203Y-73427669D01*
X55626202Y-73427671D01*
X55575908Y-73562517D01*
X55569501Y-73622116D01*
X55569501Y-73622123D01*
X55569500Y-73622135D01*
X55569500Y-75417870D01*
X55569501Y-75417876D01*
X55575908Y-75477483D01*
X55626202Y-75612328D01*
X55626203Y-75612330D01*
X55703578Y-75715689D01*
X55727995Y-75781153D01*
X55713144Y-75849426D01*
X55703578Y-75864311D01*
X55626203Y-75967669D01*
X55626202Y-75967671D01*
X55575908Y-76102517D01*
X55569501Y-76162116D01*
X55569501Y-76162123D01*
X55569500Y-76162135D01*
X55569500Y-77957870D01*
X55569501Y-77957876D01*
X55575908Y-78017483D01*
X55626202Y-78152328D01*
X55626203Y-78152330D01*
X55703578Y-78255689D01*
X55727995Y-78321153D01*
X55713144Y-78389426D01*
X55703578Y-78404311D01*
X55626203Y-78507669D01*
X55626202Y-78507671D01*
X55575908Y-78642517D01*
X55569501Y-78702116D01*
X55569501Y-78702123D01*
X55569500Y-78702135D01*
X55569500Y-80497870D01*
X55569501Y-80497876D01*
X55575908Y-80557483D01*
X55626202Y-80692328D01*
X55626203Y-80692330D01*
X55703578Y-80795689D01*
X55727995Y-80861153D01*
X55713144Y-80929426D01*
X55703578Y-80944311D01*
X55626203Y-81047669D01*
X55626202Y-81047671D01*
X55575908Y-81182517D01*
X55569501Y-81242116D01*
X55569501Y-81242123D01*
X55569500Y-81242135D01*
X55569500Y-83037870D01*
X55569501Y-83037876D01*
X55575908Y-83097483D01*
X55626202Y-83232328D01*
X55626203Y-83232330D01*
X55703578Y-83335689D01*
X55727995Y-83401153D01*
X55713144Y-83469426D01*
X55703578Y-83484311D01*
X55626203Y-83587669D01*
X55626202Y-83587671D01*
X55575908Y-83722517D01*
X55569501Y-83782116D01*
X55569501Y-83782123D01*
X55569500Y-83782135D01*
X55569500Y-85577870D01*
X55569501Y-85577876D01*
X55575908Y-85637483D01*
X55626202Y-85772328D01*
X55626203Y-85772330D01*
X55703578Y-85875689D01*
X55727995Y-85941153D01*
X55713144Y-86009426D01*
X55703578Y-86024311D01*
X55626203Y-86127669D01*
X55626202Y-86127671D01*
X55575908Y-86262517D01*
X55569501Y-86322116D01*
X55569501Y-86322123D01*
X55569500Y-86322135D01*
X55569500Y-88117870D01*
X55569501Y-88117876D01*
X55575908Y-88177483D01*
X55626202Y-88312328D01*
X55626203Y-88312330D01*
X55703578Y-88415689D01*
X55727995Y-88481153D01*
X55713144Y-88549426D01*
X55703578Y-88564309D01*
X55703265Y-88564729D01*
X55626203Y-88667669D01*
X55626202Y-88667671D01*
X55575908Y-88802517D01*
X55569501Y-88862116D01*
X55569501Y-88862123D01*
X55569500Y-88862135D01*
X55569500Y-90657870D01*
X55569501Y-90657876D01*
X55575908Y-90717483D01*
X55626202Y-90852328D01*
X55626203Y-90852330D01*
X55703578Y-90955689D01*
X55727995Y-91021153D01*
X55713144Y-91089426D01*
X55703578Y-91104311D01*
X55626203Y-91207669D01*
X55626202Y-91207671D01*
X55575908Y-91342517D01*
X55569501Y-91402116D01*
X55569501Y-91402123D01*
X55569500Y-91402135D01*
X55569500Y-93197870D01*
X55569501Y-93197876D01*
X55575908Y-93257483D01*
X55626202Y-93392328D01*
X55626203Y-93392330D01*
X55703578Y-93495689D01*
X55727995Y-93561153D01*
X55713144Y-93629426D01*
X55703578Y-93644311D01*
X55626203Y-93747669D01*
X55626202Y-93747671D01*
X55575908Y-93882517D01*
X55569501Y-93942116D01*
X55569501Y-93942123D01*
X55569500Y-93942135D01*
X55569500Y-95737870D01*
X55569501Y-95737876D01*
X55575908Y-95797483D01*
X55626202Y-95932328D01*
X55626203Y-95932330D01*
X55703578Y-96035689D01*
X55727995Y-96101153D01*
X55713144Y-96169426D01*
X55703578Y-96184311D01*
X55626203Y-96287669D01*
X55626202Y-96287671D01*
X55575908Y-96422517D01*
X55569501Y-96482116D01*
X55569501Y-96482123D01*
X55569500Y-96482135D01*
X55569500Y-98277870D01*
X55569501Y-98277876D01*
X55575908Y-98337483D01*
X55626202Y-98472328D01*
X55626203Y-98472330D01*
X55703578Y-98575689D01*
X55727995Y-98641153D01*
X55713144Y-98709426D01*
X55703578Y-98724311D01*
X55626203Y-98827669D01*
X55626202Y-98827671D01*
X55575908Y-98962517D01*
X55571825Y-99000500D01*
X55569501Y-99022123D01*
X55569500Y-99022135D01*
X55569500Y-100817870D01*
X55569501Y-100817876D01*
X55575908Y-100877483D01*
X55626202Y-101012328D01*
X55626203Y-101012330D01*
X55703578Y-101115689D01*
X55727995Y-101181153D01*
X55713144Y-101249426D01*
X55703578Y-101264311D01*
X55626203Y-101367669D01*
X55626202Y-101367671D01*
X55575908Y-101502517D01*
X55569501Y-101562116D01*
X55569501Y-101562123D01*
X55569500Y-101562135D01*
X55569500Y-103357870D01*
X55569501Y-103357876D01*
X55575908Y-103417483D01*
X55626202Y-103552328D01*
X55626203Y-103552330D01*
X55703578Y-103655689D01*
X55727995Y-103721153D01*
X55713144Y-103789426D01*
X55703578Y-103804311D01*
X55626203Y-103907669D01*
X55626202Y-103907671D01*
X55575908Y-104042517D01*
X55569501Y-104102116D01*
X55569501Y-104102123D01*
X55569500Y-104102135D01*
X55569500Y-105897870D01*
X55569501Y-105897876D01*
X55575908Y-105957483D01*
X55626202Y-106092328D01*
X55626203Y-106092330D01*
X55703578Y-106195689D01*
X55727995Y-106261153D01*
X55713144Y-106329426D01*
X55703578Y-106344311D01*
X55626203Y-106447669D01*
X55626202Y-106447671D01*
X55575908Y-106582517D01*
X55569501Y-106642116D01*
X55569501Y-106642123D01*
X55569500Y-106642135D01*
X55569500Y-108437870D01*
X47000500Y-108437870D01*
X47000500Y-44624500D01*
X47020185Y-44557461D01*
X47072989Y-44511706D01*
X47124500Y-44500500D01*
X107375500Y-44500500D01*
X107442539Y-44520185D01*
G37*
%TD.AperFunction*%
%TD*%
M02*
